<mxfile host="app.diagrams.net" modified="2021-09-25T17:02:25.215Z" agent="5.0 (Windows NT 10.0; Win64; x64) AppleWebKit/537.36 (KHTML, like Gecko) Chrome/93.0.4577.82 Safari/537.36" etag="XqbxwDdnkCAN1k0Nf-AI" version="15.3.2" type="github">
  <diagram id="l5MOwwbJhsoDaF--JeqX" name="Page-1">
    <mxGraphModel dx="5787" dy="3027" grid="1" gridSize="10" guides="1" tooltips="1" connect="1" arrows="1" fold="1" page="1" pageScale="1" pageWidth="850" pageHeight="1100" math="0" shadow="0">
      <root>
        <mxCell id="0" />
        <mxCell id="1" parent="0" />
        <UserObject label="" lucidchartObjectId="cS28iVqRFSppw" id="Rg4rLftVrNuiM7w5SH7Z-1">
          <mxCell style="html=1;jettySize=18;whiteSpace=wrap;fontSize=16;strokeColor=#5E5E5E;strokeOpacity=100;strokeWidth=1.5;rounded=0;startArrow=none;;endArrow=block;endFill=1;;exitX=0.5;exitY=1;entryX=0.486;entryY=-0.009;entryPerimeter=0;exitDx=0;exitDy=0;" edge="1" parent="1" source="Rg4rLftVrNuiM7w5SH7Z-90" target="Rg4rLftVrNuiM7w5SH7Z-3">
            <mxGeometry width="100" height="100" relative="1" as="geometry">
              <Array as="points" />
              <mxPoint x="764.6929999999998" y="587.19" as="sourcePoint" />
            </mxGeometry>
          </mxCell>
        </UserObject>
        <mxCell id="Rg4rLftVrNuiM7w5SH7Z-2" value="" style="text;html=1;resizable=0;labelBackgroundColor=#ffffff;align=center;verticalAlign=middle;fontColor=#000000;;fontSize=16;" vertex="1" parent="Rg4rLftVrNuiM7w5SH7Z-1">
          <mxGeometry relative="1" as="geometry" />
        </mxCell>
        <UserObject label="Input Action" lucidchartObjectId="oJv5GvPZ14lT3" id="Rg4rLftVrNuiM7w5SH7Z-3">
          <mxCell style="html=1;overflow=block;blockSpacing=1;whiteSpace=wrap;shape=parallelogram;perimeter=parallelogramPerimeter;anchorPointDirection=0;whiteSpace=wrap;fontSize=16;fontFamily=Arimo;spacing=0;strokeColor=#6c8ebf;strokeOpacity=100;fillOpacity=100;rounded=1;absoluteArcSize=1;arcSize=14.4;fillColor=#dae8fc;strokeWidth=2.3;" vertex="1" parent="1">
            <mxGeometry x="668" y="692" width="193" height="127" as="geometry" />
          </mxCell>
        </UserObject>
        <UserObject label="" lucidchartObjectId="ATfh5iJ4g5bva" id="Rg4rLftVrNuiM7w5SH7Z-4">
          <mxCell style="html=1;jettySize=18;whiteSpace=wrap;fontSize=16;strokeColor=#5E5E5E;strokeOpacity=100;strokeWidth=1.5;rounded=0;startArrow=none;;endArrow=block;endFill=1;;exitX=0.516;exitY=1.009;exitPerimeter=0;entryX=0.501;entryY=0.01;entryPerimeter=0;" edge="1" parent="1" source="Rg4rLftVrNuiM7w5SH7Z-3" target="Rg4rLftVrNuiM7w5SH7Z-6">
            <mxGeometry width="100" height="100" relative="1" as="geometry">
              <Array as="points" />
            </mxGeometry>
          </mxCell>
        </UserObject>
        <mxCell id="Rg4rLftVrNuiM7w5SH7Z-5" value="" style="text;html=1;resizable=0;labelBackgroundColor=#ffffff;align=center;verticalAlign=middle;fontColor=#000000;;fontSize=16;" vertex="1" parent="Rg4rLftVrNuiM7w5SH7Z-4">
          <mxGeometry relative="1" as="geometry" />
        </mxCell>
        <mxCell id="Rg4rLftVrNuiM7w5SH7Z-6" value="  is it letter B?" style="html=1;overflow=block;blockSpacing=1;whiteSpace=wrap;rhombus;whiteSpace=wrap;fontSize=16;fontFamily=Arimo;spacing=0;strokeColor=#d79b00;strokeOpacity=100;fillOpacity=100;rounded=1;absoluteArcSize=1;arcSize=14.4;fillColor=#ffe6cc;strokeWidth=2.3;" vertex="1" parent="1">
          <mxGeometry x="668" y="903" width="193" height="127" as="geometry" />
        </mxCell>
        <UserObject label="" lucidchartObjectId="iwkCIUenbbJib" id="Rg4rLftVrNuiM7w5SH7Z-7">
          <mxCell style="html=1;jettySize=18;whiteSpace=wrap;fontSize=16;strokeColor=#5E5E5E;strokeOpacity=100;strokeWidth=1.5;rounded=0;startArrow=none;;endArrow=block;endFill=1;;exitX=0.988;exitY=0.5;exitPerimeter=0;entryX=0.081;entryY=0.5;entryPerimeter=0;" edge="1" parent="1" source="Rg4rLftVrNuiM7w5SH7Z-106" target="Rg4rLftVrNuiM7w5SH7Z-21">
            <mxGeometry width="100" height="100" relative="1" as="geometry">
              <Array as="points" />
            </mxGeometry>
          </mxCell>
        </UserObject>
        <mxCell id="Rg4rLftVrNuiM7w5SH7Z-8" value="" style="html=1;jettySize=18;whiteSpace=wrap;fontSize=16;strokeColor=#5E5E5E;strokeOpacity=100;strokeWidth=1.5;rounded=0;startArrow=none;;endArrow=block;endFill=1;;exitX=0.501;exitY=0.99;exitPerimeter=0;entryX=0.501;entryY=0.01;entryPerimeter=0;" edge="1" parent="1" source="Rg4rLftVrNuiM7w5SH7Z-103" target="Rg4rLftVrNuiM7w5SH7Z-9">
          <mxGeometry width="100" height="100" relative="1" as="geometry">
            <Array as="points" />
          </mxGeometry>
        </mxCell>
        <mxCell id="Rg4rLftVrNuiM7w5SH7Z-9" value="  is it letter A?" style="html=1;overflow=block;blockSpacing=1;whiteSpace=wrap;rhombus;whiteSpace=wrap;fontSize=16;fontFamily=Arimo;spacing=0;strokeColor=#d79b00;strokeOpacity=100;fillOpacity=100;rounded=1;absoluteArcSize=1;arcSize=14.4;fillColor=#ffe6cc;strokeWidth=2.3;" vertex="1" parent="1">
          <mxGeometry x="668" y="1348" width="193" height="127" as="geometry" />
        </mxCell>
        <UserObject label="" lucidchartObjectId="5WMwQSikLZ9fj" id="Rg4rLftVrNuiM7w5SH7Z-10">
          <mxCell style="html=1;jettySize=18;whiteSpace=wrap;fontSize=16;strokeColor=#5E5E5E;strokeOpacity=100;strokeWidth=1.5;rounded=0;startArrow=none;;endArrow=block;endFill=1;;exitX=0.988;exitY=0.5;exitPerimeter=0;entryX=0.081;entryY=0.5;entryPerimeter=0;" edge="1" parent="1" source="Rg4rLftVrNuiM7w5SH7Z-100" target="Rg4rLftVrNuiM7w5SH7Z-36">
            <mxGeometry width="100" height="100" relative="1" as="geometry">
              <Array as="points" />
            </mxGeometry>
          </mxCell>
        </UserObject>
        <UserObject label="" lucidchartObjectId="R1q1eOYdVoXNU" id="Rg4rLftVrNuiM7w5SH7Z-11">
          <mxCell style="html=1;jettySize=18;whiteSpace=wrap;fontSize=16;strokeColor=#5E5E5E;strokeOpacity=100;strokeWidth=1.5;rounded=0;startArrow=none;;endArrow=block;endFill=1;;exitX=0.501;exitY=0.99;exitPerimeter=0;entryX=0.501;entryY=0.01;entryPerimeter=0;" edge="1" parent="1" source="Rg4rLftVrNuiM7w5SH7Z-97" target="Rg4rLftVrNuiM7w5SH7Z-12">
            <mxGeometry width="100" height="100" relative="1" as="geometry">
              <Array as="points" />
            </mxGeometry>
          </mxCell>
        </UserObject>
        <mxCell id="Rg4rLftVrNuiM7w5SH7Z-12" value="  is it letter C?" style="html=1;overflow=block;blockSpacing=1;whiteSpace=wrap;rhombus;whiteSpace=wrap;fontSize=16;fontFamily=Arimo;spacing=0;strokeColor=#d79b00;strokeOpacity=100;fillOpacity=100;rounded=1;absoluteArcSize=1;arcSize=14.4;fillColor=#ffe6cc;strokeWidth=2.3;" vertex="1" parent="1">
          <mxGeometry x="668" y="1644" width="193" height="127" as="geometry" />
        </mxCell>
        <UserObject label="" lucidchartObjectId="ikkNq6HuSS9gc" id="Rg4rLftVrNuiM7w5SH7Z-13">
          <mxCell style="html=1;jettySize=18;whiteSpace=wrap;fontSize=16;strokeColor=#5E5E5E;strokeOpacity=100;strokeWidth=1.5;rounded=0;startArrow=none;;endArrow=block;endFill=1;;exitX=0.988;exitY=0.5;exitPerimeter=0;entryX=0.081;entryY=0.5;entryPerimeter=0;" edge="1" parent="1" source="Rg4rLftVrNuiM7w5SH7Z-91" target="Rg4rLftVrNuiM7w5SH7Z-49">
            <mxGeometry width="100" height="100" relative="1" as="geometry">
              <Array as="points" />
            </mxGeometry>
          </mxCell>
        </UserObject>
        <UserObject label="" lucidchartObjectId="KNojReYybz9DE" id="Rg4rLftVrNuiM7w5SH7Z-14">
          <mxCell style="html=1;jettySize=18;whiteSpace=wrap;fontSize=16;strokeColor=#5E5E5E;strokeOpacity=100;strokeWidth=1.5;rounded=0;startArrow=none;;endArrow=block;endFill=1;;exitX=0.501;exitY=0.99;exitPerimeter=0;entryX=0.501;entryY=0.01;entryPerimeter=0;" edge="1" parent="1" source="Rg4rLftVrNuiM7w5SH7Z-94" target="Rg4rLftVrNuiM7w5SH7Z-15">
            <mxGeometry width="100" height="100" relative="1" as="geometry">
              <Array as="points" />
            </mxGeometry>
          </mxCell>
        </UserObject>
        <mxCell id="Rg4rLftVrNuiM7w5SH7Z-15" value="is it letter D?" style="html=1;overflow=block;blockSpacing=1;whiteSpace=wrap;rhombus;whiteSpace=wrap;fontSize=16;fontFamily=Arimo;spacing=0;strokeColor=#d79b00;strokeOpacity=100;fillOpacity=100;rounded=1;absoluteArcSize=1;arcSize=14.4;fillColor=#ffe6cc;strokeWidth=2.3;" vertex="1" parent="1">
          <mxGeometry x="668" y="2112" width="193" height="127" as="geometry" />
        </mxCell>
        <UserObject label="" lucidchartObjectId="tuWtYRgmpI1bi" id="Rg4rLftVrNuiM7w5SH7Z-16">
          <mxCell style="html=1;jettySize=18;whiteSpace=wrap;fontSize=16;strokeColor=#5E5E5E;strokeOpacity=100;strokeWidth=1.5;rounded=0;startArrow=none;;endArrow=block;endFill=1;;exitX=0.988;exitY=0.5;exitPerimeter=0;entryX=0.081;entryY=0.5;entryPerimeter=0;" edge="1" parent="1" source="Rg4rLftVrNuiM7w5SH7Z-131" target="Rg4rLftVrNuiM7w5SH7Z-61">
            <mxGeometry width="100" height="100" relative="1" as="geometry">
              <Array as="points" />
            </mxGeometry>
          </mxCell>
        </UserObject>
        <UserObject label="" lucidchartObjectId="ZU7SaWs4hm41R" id="Rg4rLftVrNuiM7w5SH7Z-17">
          <mxCell style="html=1;jettySize=18;whiteSpace=wrap;fontSize=16;strokeColor=#5E5E5E;strokeOpacity=100;strokeWidth=1.5;rounded=0;startArrow=none;;endArrow=block;endFill=1;;exitX=0.501;exitY=0.99;exitPerimeter=0;entryX=0.501;entryY=0.01;entryPerimeter=0;" edge="1" parent="1" source="Rg4rLftVrNuiM7w5SH7Z-124" target="Rg4rLftVrNuiM7w5SH7Z-19">
            <mxGeometry width="100" height="100" relative="1" as="geometry">
              <Array as="points" />
            </mxGeometry>
          </mxCell>
        </UserObject>
        <UserObject label="" lucidchartObjectId="KdTYqlskSXaxP" id="Rg4rLftVrNuiM7w5SH7Z-18">
          <mxCell style="html=1;jettySize=18;whiteSpace=wrap;fontSize=16;strokeOpacity=100;rounded=0;startArrow=none;;endArrow=block;endFill=1;;exitX=0.502;exitY=1;exitPerimeter=0;entryX=0.501;entryY=-0.004;entryPerimeter=0;" edge="1" parent="1" source="Rg4rLftVrNuiM7w5SH7Z-86" target="Rg4rLftVrNuiM7w5SH7Z-85">
            <mxGeometry width="100" height="100" relative="1" as="geometry">
              <Array as="points" />
            </mxGeometry>
          </mxCell>
        </UserObject>
        <mxCell id="Rg4rLftVrNuiM7w5SH7Z-19" value="  is it letter X?" style="html=1;overflow=block;blockSpacing=1;whiteSpace=wrap;rhombus;whiteSpace=wrap;fontSize=16;fontFamily=Arimo;spacing=0;strokeColor=#d79b00;strokeOpacity=100;fillOpacity=100;rounded=1;absoluteArcSize=1;arcSize=14.4;fillColor=#ffe6cc;strokeWidth=2.3;" vertex="1" parent="1">
          <mxGeometry x="668" y="2494" width="193" height="127" as="geometry" />
        </mxCell>
        <UserObject label="" lucidchartObjectId="3xPwDdgBlHCsL" id="Rg4rLftVrNuiM7w5SH7Z-20">
          <mxCell style="html=1;jettySize=18;whiteSpace=wrap;fontSize=16;strokeColor=#5E5E5E;strokeOpacity=100;strokeWidth=1.5;rounded=0;startArrow=none;;endArrow=block;endFill=1;;exitX=0.988;exitY=0.5;exitPerimeter=0;entryX=0;entryY=0.5;entryDx=0;entryDy=0;" edge="1" parent="1" source="Rg4rLftVrNuiM7w5SH7Z-127" target="Rg4rLftVrNuiM7w5SH7Z-89">
            <mxGeometry width="100" height="100" relative="1" as="geometry">
              <Array as="points" />
              <mxPoint x="1011" y="2557" as="targetPoint" />
            </mxGeometry>
          </mxCell>
        </UserObject>
        <UserObject label="Input Name" lucidchartObjectId="pOECfvFaWisfE" id="Rg4rLftVrNuiM7w5SH7Z-21">
          <mxCell style="html=1;overflow=block;blockSpacing=1;whiteSpace=wrap;shape=parallelogram;perimeter=parallelogramPerimeter;anchorPointDirection=0;whiteSpace=wrap;fontSize=16;fontFamily=Arimo;spacing=0;strokeColor=#6c8ebf;strokeOpacity=100;fillOpacity=100;rounded=1;absoluteArcSize=1;arcSize=14.4;fillColor=#dae8fc;strokeWidth=2.3;" vertex="1" parent="1">
            <mxGeometry x="986" y="903" width="193" height="127" as="geometry" />
          </mxCell>
        </UserObject>
        <UserObject label="" lucidchartObjectId="Xj2jtDlBObIrp" id="Rg4rLftVrNuiM7w5SH7Z-22">
          <mxCell style="html=1;jettySize=18;whiteSpace=wrap;fontSize=16;strokeColor=#5E5E5E;strokeOpacity=100;strokeWidth=1.5;rounded=0;startArrow=none;;endArrow=block;endFill=1;;exitX=1.006;exitY=0.5;exitPerimeter=0;entryX=0.012;entryY=0.5;entryPerimeter=0;" edge="1" parent="1" source="Rg4rLftVrNuiM7w5SH7Z-62" target="Rg4rLftVrNuiM7w5SH7Z-26">
            <mxGeometry width="100" height="100" relative="1" as="geometry">
              <Array as="points" />
            </mxGeometry>
          </mxCell>
        </UserObject>
        <mxCell id="Rg4rLftVrNuiM7w5SH7Z-23" value="" style="text;html=1;resizable=0;labelBackgroundColor=#ffffff;align=center;verticalAlign=middle;fontColor=#000000;;fontSize=16;" vertex="1" parent="Rg4rLftVrNuiM7w5SH7Z-22">
          <mxGeometry relative="1" as="geometry" />
        </mxCell>
        <UserObject label="" lucidchartObjectId="IWYgvFQAJ9krY" id="Rg4rLftVrNuiM7w5SH7Z-24">
          <mxCell style="html=1;jettySize=18;whiteSpace=wrap;fontSize=16;strokeColor=#5E5E5E;strokeOpacity=100;strokeWidth=1.5;rounded=0;startArrow=none;;endArrow=block;endFill=1;;exitX=0.919;exitY=0.5;exitPerimeter=0;entryX=-0.006;entryY=0.5;entryPerimeter=0;" edge="1" parent="1" source="Rg4rLftVrNuiM7w5SH7Z-21" target="Rg4rLftVrNuiM7w5SH7Z-62">
            <mxGeometry width="100" height="100" relative="1" as="geometry">
              <Array as="points" />
            </mxGeometry>
          </mxCell>
        </UserObject>
        <mxCell id="Rg4rLftVrNuiM7w5SH7Z-25" value="" style="text;html=1;resizable=0;labelBackgroundColor=#ffffff;align=center;verticalAlign=middle;fontColor=#000000;;fontSize=16;" vertex="1" parent="Rg4rLftVrNuiM7w5SH7Z-24">
          <mxGeometry relative="1" as="geometry" />
        </mxCell>
        <mxCell id="Rg4rLftVrNuiM7w5SH7Z-26" value="does name exists?" style="html=1;overflow=block;blockSpacing=1;whiteSpace=wrap;rhombus;whiteSpace=wrap;fontSize=16;fontFamily=Arimo;spacing=0;strokeColor=#d79b00;strokeOpacity=100;fillOpacity=100;rounded=1;absoluteArcSize=1;arcSize=14.4;fillColor=#ffe6cc;strokeWidth=2.3;" vertex="1" parent="1">
          <mxGeometry x="1545" y="903" width="193" height="127" as="geometry" />
        </mxCell>
        <UserObject label="" lucidchartObjectId="itVSZmkM1HrUt" id="Rg4rLftVrNuiM7w5SH7Z-27">
          <mxCell style="html=1;jettySize=18;whiteSpace=wrap;fontSize=16;strokeColor=#5E5E5E;strokeOpacity=100;strokeWidth=1.5;rounded=0;startArrow=none;;endArrow=block;endFill=1;;exitX=0.988;exitY=0.5;exitPerimeter=0;entryX=0.072;entryY=0.5;entryPerimeter=0;" edge="1" parent="1" source="Rg4rLftVrNuiM7w5SH7Z-109" target="Rg4rLftVrNuiM7w5SH7Z-28">
            <mxGeometry width="100" height="100" relative="1" as="geometry">
              <Array as="points" />
            </mxGeometry>
          </mxCell>
        </UserObject>
        <UserObject label="&lt;div style=&quot;display: flex ; justify-content: center ; text-align: center ; align-items: baseline ; font-size: 16px ; line-height: 1.25 ; margin-top: -2px&quot;&gt;&lt;span style=&quot;font-size: 16px&quot;&gt;&lt;span style=&quot;font-size: 16px ; color: rgb(51 , 51 , 51) ; font-family: &amp;#34;arimo&amp;#34;&quot;&gt;Print: &lt;/span&gt;&lt;span style=&quot;font-size: 16px ; color: rgb(51 , 51 , 51) ; font-family: &amp;#34;arimo&amp;#34;&quot;&gt;&lt;br&gt;&lt;/span&gt;&lt;/span&gt;&lt;/div&gt;&lt;div style=&quot;display: flex ; justify-content: center ; text-align: center ; align-items: baseline ; font-size: 16px ; line-height: 1.25 ; margin-top: -2px&quot;&gt;&lt;span style=&quot;font-size: 16px&quot;&gt;&lt;span&gt;&quot;&lt;/span&gt;&lt;span style=&quot;font-size: 16px ; color: rgb(51 , 51 , 51) ; font-family: &amp;#34;arimo&amp;#34;&quot;&gt;Search Successful&lt;/span&gt;&lt;span style=&quot;font-size: 16px ; color: rgb(51 , 51 , 51) ; font-family: &amp;#34;arimo&amp;#34;&quot;&gt;&lt;br&gt;&lt;/span&gt;&lt;/span&gt;&lt;/div&gt;&lt;div style=&quot;display: flex ; justify-content: center ; text-align: center ; align-items: baseline ; font-size: 16px ; line-height: 1.25 ; margin-top: -2px&quot;&gt;&lt;span style=&quot;font-size: 16px&quot;&gt;&lt;span style=&quot;font-size: 16px ; color: rgb(51 , 51 , 51) ; font-family: &amp;#34;arimo&amp;#34;&quot;&gt;with name and age&lt;/span&gt;&lt;span&gt;&quot;&lt;/span&gt;&lt;/span&gt;&lt;/div&gt;" lucidchartObjectId="fede6pO11UmRB" id="Rg4rLftVrNuiM7w5SH7Z-28">
          <mxCell style="html=1;overflow=block;blockSpacing=1;whiteSpace=wrap;shape=parallelogram;perimeter=parallelogramPerimeter;anchorPointDirection=0;whiteSpace=wrap;fontSize=16;fontFamily=Arimo;spacing=0;strokeColor=#6c8ebf;strokeOpacity=100;fillOpacity=100;rounded=1;absoluteArcSize=1;arcSize=14.4;fillColor=#dae8fc;strokeWidth=2.3;" vertex="1" parent="1">
            <mxGeometry x="1859" y="903" width="217" height="127" as="geometry" />
          </mxCell>
        </UserObject>
        <UserObject label="" lucidchartObjectId="2p2abbxtC9x04" id="Rg4rLftVrNuiM7w5SH7Z-29">
          <mxCell style="html=1;jettySize=18;whiteSpace=wrap;fontSize=16;strokeColor=#5E5E5E;strokeOpacity=100;strokeWidth=1.5;rounded=0;startArrow=none;;endArrow=block;endFill=1;;exitX=0.501;exitY=0.99;exitPerimeter=0;" edge="1" parent="1" source="Rg4rLftVrNuiM7w5SH7Z-112">
            <mxGeometry width="100" height="100" relative="1" as="geometry">
              <Array as="points" />
              <mxPoint x="1639" y="1114" as="targetPoint" />
            </mxGeometry>
          </mxCell>
        </UserObject>
        <UserObject label="&lt;div style=&quot;display: flex ; justify-content: center ; text-align: center ; align-items: baseline ; font-size: 16px ; line-height: 1.25 ; margin-top: -2px&quot;&gt;&lt;span style=&quot;font-size: 16px&quot;&gt;&lt;span style=&quot;font-size: 16px ; color: rgb(51 , 51 , 51) ; font-family: &amp;#34;arimo&amp;#34;&quot;&gt;Print &lt;/span&gt;&lt;span style=&quot;font-size: 16px ; color: rgb(51 , 51 , 51) ; font-family: &amp;#34;arimo&amp;#34;&quot;&gt;&lt;br&gt;&lt;/span&gt;&lt;/span&gt;&lt;/div&gt;&lt;div style=&quot;display: flex ; justify-content: center ; text-align: center ; align-items: baseline ; font-size: 16px ; line-height: 1.25 ; margin-top: -2px&quot;&gt;&lt;span style=&quot;font-size: 16px&quot;&gt;&lt;span&gt;&quot;&lt;/span&gt;&lt;span style=&quot;font-size: 16px ; color: rgb(51 , 51 , 51) ; font-family: &amp;#34;arimo&amp;#34;&quot;&gt;Name is&lt;/span&gt;&lt;span style=&quot;font-size: 16px ; color: rgb(51 , 51 , 51) ; font-family: &amp;#34;arimo&amp;#34;&quot;&gt;&lt;br&gt;&lt;/span&gt;&lt;/span&gt;&lt;/div&gt;&lt;div style=&quot;display: flex ; justify-content: center ; text-align: center ; align-items: baseline ; font-size: 16px ; line-height: 1.25 ; margin-top: -2px&quot;&gt;&lt;span style=&quot;font-size: 16px&quot;&gt;&lt;span style=&quot;font-size: 16px ; color: rgb(51 , 51 , 51) ; font-family: &amp;#34;arimo&amp;#34;&quot;&gt;not registered!&lt;/span&gt;&lt;span&gt;&quot;&lt;/span&gt;&lt;/span&gt;&lt;/div&gt;" lucidchartObjectId="4Fr682yxueAkH" id="Rg4rLftVrNuiM7w5SH7Z-30">
          <mxCell style="html=1;overflow=block;blockSpacing=1;whiteSpace=wrap;shape=parallelogram;perimeter=parallelogramPerimeter;anchorPointDirection=0;whiteSpace=wrap;fontSize=16;fontFamily=Arimo;spacing=0;strokeColor=#6c8ebf;strokeOpacity=100;fillOpacity=100;rounded=1;absoluteArcSize=1;arcSize=14.4;fillColor=#dae8fc;strokeWidth=2.3;" vertex="1" parent="1">
            <mxGeometry x="1545" y="1115" width="193" height="127" as="geometry" />
          </mxCell>
        </UserObject>
        <UserObject label="" lucidchartObjectId="ga7IyxpddYs3K" id="Rg4rLftVrNuiM7w5SH7Z-31">
          <mxCell style="html=1;jettySize=18;whiteSpace=wrap;fontSize=16;strokeColor=#5E5E5E;strokeOpacity=100;strokeWidth=1.5;rounded=0;startArrow=none;;endArrow=block;endFill=1;;exitX=0.919;exitY=0.5;exitPerimeter=0;entryX=1.006;entryY=0.5;entryPerimeter=0;" edge="1" parent="1" source="Rg4rLftVrNuiM7w5SH7Z-30">
            <mxGeometry width="100" height="100" relative="1" as="geometry">
              <Array as="points">
                <mxPoint x="2146" y="1179" />
                <mxPoint x="2146" y="544" />
              </Array>
              <mxPoint x="862.1579999999999" y="543.5" as="targetPoint" />
            </mxGeometry>
          </mxCell>
        </UserObject>
        <mxCell id="Rg4rLftVrNuiM7w5SH7Z-32" value="" style="text;html=1;resizable=0;labelBackgroundColor=#ffffff;align=center;verticalAlign=middle;fontColor=#000000;;fontSize=16;" vertex="1" parent="Rg4rLftVrNuiM7w5SH7Z-31">
          <mxGeometry relative="1" as="geometry" />
        </mxCell>
        <UserObject label="" lucidchartObjectId="E52ARPsoFGZHo" id="Rg4rLftVrNuiM7w5SH7Z-33">
          <mxCell style="html=1;jettySize=18;whiteSpace=wrap;fontSize=16;strokeColor=#5E5E5E;strokeOpacity=100;strokeWidth=1.5;rounded=0;startArrow=none;;endArrow=block;endFill=1;;exitX=0.928;exitY=0.5;exitPerimeter=0;entryX=1.006;entryY=0.5;entryPerimeter=0;" edge="1" parent="1" source="Rg4rLftVrNuiM7w5SH7Z-28">
            <mxGeometry width="100" height="100" relative="1" as="geometry">
              <Array as="points">
                <mxPoint x="2108" y="967" />
                <mxPoint x="2108" y="544" />
              </Array>
              <mxPoint x="862.1579999999999" y="543.5" as="targetPoint" />
            </mxGeometry>
          </mxCell>
        </UserObject>
        <mxCell id="Rg4rLftVrNuiM7w5SH7Z-34" value="" style="text;html=1;resizable=0;labelBackgroundColor=#ffffff;align=center;verticalAlign=middle;fontColor=#000000;;fontSize=16;" vertex="1" parent="Rg4rLftVrNuiM7w5SH7Z-33">
          <mxGeometry relative="1" as="geometry" />
        </mxCell>
        <mxCell id="Rg4rLftVrNuiM7w5SH7Z-35" style="edgeStyle=orthogonalEdgeStyle;rounded=0;orthogonalLoop=1;jettySize=auto;html=1;entryX=0;entryY=0.5;entryDx=0;entryDy=0;exitX=0.93;exitY=0.5;exitDx=0;exitDy=0;exitPerimeter=0;" edge="1" parent="1" source="Rg4rLftVrNuiM7w5SH7Z-134" target="Rg4rLftVrNuiM7w5SH7Z-90">
          <mxGeometry relative="1" as="geometry">
            <mxPoint x="660" y="544" as="targetPoint" />
            <mxPoint x="533" y="541.6666666666667" as="sourcePoint" />
            <Array as="points">
              <mxPoint x="517" y="542" />
            </Array>
          </mxGeometry>
        </mxCell>
        <UserObject label="Input name" lucidchartObjectId="Wedf4cdacdH9N" id="Rg4rLftVrNuiM7w5SH7Z-36">
          <mxCell style="html=1;overflow=block;blockSpacing=1;whiteSpace=wrap;shape=parallelogram;perimeter=parallelogramPerimeter;anchorPointDirection=0;whiteSpace=wrap;fontSize=16;fontFamily=Arimo;spacing=0;strokeColor=#6c8ebf;strokeOpacity=100;fillOpacity=100;rounded=1;absoluteArcSize=1;arcSize=14.4;fillColor=#dae8fc;strokeWidth=2.3;" vertex="1" parent="1">
            <mxGeometry x="1011" y="1348" width="193" height="127" as="geometry" />
          </mxCell>
        </UserObject>
        <UserObject label="" lucidchartObjectId="2X79jSz0jfP0C" id="Rg4rLftVrNuiM7w5SH7Z-37">
          <mxCell style="html=1;jettySize=18;whiteSpace=wrap;fontSize=16;strokeColor=#5E5E5E;strokeOpacity=100;strokeWidth=1.5;rounded=0;startArrow=none;;endArrow=block;endFill=1;;exitX=0.919;exitY=0.5;exitPerimeter=0;entryX=0.081;entryY=0.5;entryPerimeter=0;" edge="1" parent="1" source="Rg4rLftVrNuiM7w5SH7Z-36" target="Rg4rLftVrNuiM7w5SH7Z-39">
            <mxGeometry width="100" height="100" relative="1" as="geometry">
              <Array as="points" />
            </mxGeometry>
          </mxCell>
        </UserObject>
        <mxCell id="Rg4rLftVrNuiM7w5SH7Z-38" value="" style="text;html=1;resizable=0;labelBackgroundColor=#ffffff;align=center;verticalAlign=middle;fontColor=#000000;;fontSize=16;" vertex="1" parent="Rg4rLftVrNuiM7w5SH7Z-37">
          <mxGeometry relative="1" as="geometry" />
        </mxCell>
        <UserObject label="Input age" lucidchartObjectId="E9JarjyRWTBgL" id="Rg4rLftVrNuiM7w5SH7Z-39">
          <mxCell style="html=1;overflow=block;blockSpacing=1;whiteSpace=wrap;shape=parallelogram;perimeter=parallelogramPerimeter;anchorPointDirection=0;whiteSpace=wrap;fontSize=16;fontFamily=Arimo;spacing=0;strokeColor=#6c8ebf;strokeOpacity=100;fillOpacity=100;rounded=1;absoluteArcSize=1;arcSize=14.4;fillColor=#dae8fc;strokeWidth=2.3;" vertex="1" parent="1">
            <mxGeometry x="1325" y="1348" width="193" height="127" as="geometry" />
          </mxCell>
        </UserObject>
        <UserObject label="" lucidchartObjectId="H8YA89hcnDjnV" id="Rg4rLftVrNuiM7w5SH7Z-40">
          <mxCell style="html=1;jettySize=18;whiteSpace=wrap;fontSize=16;strokeColor=#5E5E5E;strokeOpacity=100;strokeWidth=1.5;rounded=0;startArrow=none;;endArrow=block;endFill=1;;exitX=0.919;exitY=0.5;exitPerimeter=0;entryX=-0.006;entryY=0.5;entryPerimeter=0;" edge="1" parent="1" source="Rg4rLftVrNuiM7w5SH7Z-39" target="Rg4rLftVrNuiM7w5SH7Z-43">
            <mxGeometry width="100" height="100" relative="1" as="geometry">
              <Array as="points" />
            </mxGeometry>
          </mxCell>
        </UserObject>
        <mxCell id="Rg4rLftVrNuiM7w5SH7Z-41" value="" style="text;html=1;resizable=0;labelBackgroundColor=#ffffff;align=center;verticalAlign=middle;fontColor=#000000;;fontSize=16;" vertex="1" parent="Rg4rLftVrNuiM7w5SH7Z-40">
          <mxGeometry relative="1" as="geometry" />
        </mxCell>
        <mxCell id="Rg4rLftVrNuiM7w5SH7Z-42" style="edgeStyle=orthogonalEdgeStyle;rounded=0;orthogonalLoop=1;jettySize=auto;html=1;entryX=0.5;entryY=1;entryDx=0;entryDy=0;entryPerimeter=0;" edge="1" parent="1" source="Rg4rLftVrNuiM7w5SH7Z-43" target="Rg4rLftVrNuiM7w5SH7Z-134">
          <mxGeometry relative="1" as="geometry">
            <mxPoint x="436.5000000000002" y="607" as="targetPoint" />
            <Array as="points">
              <mxPoint x="1736" y="1600" />
              <mxPoint x="435" y="1600" />
            </Array>
          </mxGeometry>
        </mxCell>
        <UserObject label="Add new&lt;br&gt;name &amp;amp; age to&lt;br&gt;data storage" lucidchartObjectId="fwdLmvYRVlNs4" id="Rg4rLftVrNuiM7w5SH7Z-43">
          <mxCell style="html=1;overflow=block;blockSpacing=1;whiteSpace=wrap;;whiteSpace=wrap;fontSize=16;fontFamily=Arimo;spacing=0;strokeColor=#d6b656;strokeOpacity=100;fillOpacity=100;rounded=1;absoluteArcSize=1;arcSize=14.4;fillColor=#fff2cc;strokeWidth=2.3;" vertex="1" parent="1">
            <mxGeometry x="1639" y="1348" width="193" height="127" as="geometry" />
          </mxCell>
        </UserObject>
        <UserObject label="" lucidchartObjectId="nK9Pr6HNLvDiW" id="Rg4rLftVrNuiM7w5SH7Z-44">
          <mxCell style="html=1;jettySize=18;whiteSpace=wrap;fontSize=16;strokeColor=#5E5E5E;strokeOpacity=100;strokeWidth=1.5;rounded=0;startArrow=none;;endArrow=block;endFill=1;;exitX=1.006;exitY=0.5;exitPerimeter=0;entryX=0.081;entryY=0.5;entryPerimeter=0;" edge="1" parent="1" source="Rg4rLftVrNuiM7w5SH7Z-43" target="Rg4rLftVrNuiM7w5SH7Z-46">
            <mxGeometry width="100" height="100" relative="1" as="geometry">
              <Array as="points" />
            </mxGeometry>
          </mxCell>
        </UserObject>
        <mxCell id="Rg4rLftVrNuiM7w5SH7Z-45" value="" style="text;html=1;resizable=0;labelBackgroundColor=#ffffff;align=center;verticalAlign=middle;fontColor=#000000;;fontSize=16;" vertex="1" parent="Rg4rLftVrNuiM7w5SH7Z-44">
          <mxGeometry relative="1" as="geometry" />
        </mxCell>
        <UserObject label="print:&lt;br&gt;&quot;User Successfuly &lt;br&gt;Added&quot;" lucidchartObjectId="8qGq9I8qEbNop" id="Rg4rLftVrNuiM7w5SH7Z-46">
          <mxCell style="html=1;overflow=block;blockSpacing=1;whiteSpace=wrap;shape=parallelogram;perimeter=parallelogramPerimeter;anchorPointDirection=0;whiteSpace=wrap;fontSize=16;fontFamily=Arimo;spacing=0;strokeColor=#6c8ebf;strokeOpacity=100;fillOpacity=100;rounded=1;absoluteArcSize=1;arcSize=14.4;fillColor=#dae8fc;strokeWidth=2.3;" vertex="1" parent="1">
            <mxGeometry x="1953" y="1348" width="193" height="127" as="geometry" />
          </mxCell>
        </UserObject>
        <UserObject label="" lucidchartObjectId="Qgm5M1pQETrwq" id="Rg4rLftVrNuiM7w5SH7Z-47">
          <mxCell style="html=1;jettySize=18;whiteSpace=wrap;fontSize=16;strokeColor=#5E5E5E;strokeOpacity=100;strokeWidth=1.5;rounded=0;startArrow=none;;endArrow=block;endFill=1;;exitX=0.919;exitY=0.5;exitPerimeter=0;entryX=1.006;entryY=0.5;entryPerimeter=0;" edge="1" parent="1" source="Rg4rLftVrNuiM7w5SH7Z-46">
            <mxGeometry width="100" height="100" relative="1" as="geometry">
              <Array as="points">
                <mxPoint x="2211" y="1411" />
                <mxPoint x="2211" y="544" />
              </Array>
              <mxPoint x="862.1579999999999" y="543.5" as="targetPoint" />
            </mxGeometry>
          </mxCell>
        </UserObject>
        <mxCell id="Rg4rLftVrNuiM7w5SH7Z-48" value="" style="text;html=1;resizable=0;labelBackgroundColor=#ffffff;align=center;verticalAlign=middle;fontColor=#000000;;fontSize=16;" vertex="1" parent="Rg4rLftVrNuiM7w5SH7Z-47">
          <mxGeometry relative="1" as="geometry" />
        </mxCell>
        <UserObject label="&lt;div style=&quot;display: flex; justify-content: center; text-align: center; align-items: baseline; font-size: 16px; line-height: 1.25; margin-top: -2px;&quot;&gt;&lt;span style=&quot;font-size: 16px;&quot;&gt;&lt;span style=&quot;font-size: 16px; color: rgb(51, 51, 51); font-family: Arimo;&quot;&gt;Input&lt;/span&gt;&lt;span style=&quot;font-size: 16px; color: rgb(51, 51, 51); font-family: Arimo;&quot;&gt;&#xa;&lt;/span&gt;&lt;/span&gt;&lt;/div&gt;&lt;div style=&quot;display: flex; justify-content: center; text-align: center; align-items: baseline; font-size: 16px; line-height: 1.25; margin-top: -2px;&quot;&gt;&lt;span style=&quot;font-size: 16px;&quot;&gt;&lt;span style=&quot;font-size: 16px; color: rgb(51, 51, 51); font-family: Arimo;&quot;&gt;name to delete&lt;/span&gt;&lt;/span&gt;&lt;/div&gt;" lucidchartObjectId="nHgUsfhqeuF5P" id="Rg4rLftVrNuiM7w5SH7Z-49">
          <mxCell style="html=1;overflow=block;blockSpacing=1;whiteSpace=wrap;shape=parallelogram;perimeter=parallelogramPerimeter;anchorPointDirection=0;whiteSpace=wrap;fontSize=16;fontFamily=Arimo;spacing=0;strokeColor=#6c8ebf;strokeOpacity=100;fillOpacity=100;rounded=1;absoluteArcSize=1;arcSize=14.4;fillColor=#dae8fc;strokeWidth=2.3;" vertex="1" parent="1">
            <mxGeometry x="1011" y="1644" width="193" height="127" as="geometry" />
          </mxCell>
        </UserObject>
        <UserObject label="" lucidchartObjectId="rsJde5rphPUOi" id="Rg4rLftVrNuiM7w5SH7Z-50">
          <mxCell style="html=1;jettySize=18;whiteSpace=wrap;fontSize=16;strokeColor=#5E5E5E;strokeOpacity=100;strokeWidth=1.5;rounded=0;startArrow=none;;endArrow=block;endFill=1;;exitX=0.919;exitY=0.5;exitPerimeter=0;entryX=-0.006;entryY=0.5;entryPerimeter=0;" edge="1" parent="1" source="Rg4rLftVrNuiM7w5SH7Z-49" target="Rg4rLftVrNuiM7w5SH7Z-52">
            <mxGeometry width="100" height="100" relative="1" as="geometry">
              <Array as="points" />
            </mxGeometry>
          </mxCell>
        </UserObject>
        <mxCell id="Rg4rLftVrNuiM7w5SH7Z-51" value="" style="text;html=1;resizable=0;labelBackgroundColor=#ffffff;align=center;verticalAlign=middle;fontColor=#000000;;fontSize=16;" vertex="1" parent="Rg4rLftVrNuiM7w5SH7Z-50">
          <mxGeometry relative="1" as="geometry" />
        </mxCell>
        <UserObject label="find name in&lt;br&gt;data storage" lucidchartObjectId="vOLNtfRQuZdaM" id="Rg4rLftVrNuiM7w5SH7Z-52">
          <mxCell style="html=1;overflow=block;blockSpacing=1;whiteSpace=wrap;;whiteSpace=wrap;fontSize=16;fontFamily=Arimo;spacing=0;strokeColor=#d6b656;strokeOpacity=100;fillOpacity=100;rounded=1;absoluteArcSize=1;arcSize=14.4;fillColor=#fff2cc;strokeWidth=2.3;" vertex="1" parent="1">
            <mxGeometry x="1349" y="1644" width="193" height="127" as="geometry" />
          </mxCell>
        </UserObject>
        <UserObject label="" lucidchartObjectId="QIBwIlhd05sel" id="Rg4rLftVrNuiM7w5SH7Z-53">
          <mxCell style="html=1;jettySize=18;whiteSpace=wrap;fontSize=16;strokeColor=#5E5E5E;strokeOpacity=100;strokeWidth=1.5;rounded=0;startArrow=none;;endArrow=block;endFill=1;;exitX=1.006;exitY=0.5;exitPerimeter=0;entryX=0.012;entryY=0.5;entryPerimeter=0;" edge="1" parent="1" source="Rg4rLftVrNuiM7w5SH7Z-52" target="Rg4rLftVrNuiM7w5SH7Z-55">
            <mxGeometry width="100" height="100" relative="1" as="geometry">
              <Array as="points" />
            </mxGeometry>
          </mxCell>
        </UserObject>
        <mxCell id="Rg4rLftVrNuiM7w5SH7Z-54" value="" style="text;html=1;resizable=0;labelBackgroundColor=#ffffff;align=center;verticalAlign=middle;fontColor=#000000;;fontSize=16;" vertex="1" parent="Rg4rLftVrNuiM7w5SH7Z-53">
          <mxGeometry relative="1" as="geometry" />
        </mxCell>
        <mxCell id="Rg4rLftVrNuiM7w5SH7Z-55" value="does name exists?" style="html=1;overflow=block;blockSpacing=1;whiteSpace=wrap;rhombus;whiteSpace=wrap;fontSize=16;fontFamily=Arimo;spacing=0;strokeColor=#d79b00;strokeOpacity=100;fillOpacity=100;rounded=1;absoluteArcSize=1;arcSize=14.4;fillColor=#ffe6cc;strokeWidth=2.3;" vertex="1" parent="1">
          <mxGeometry x="1663" y="1644" width="193" height="127" as="geometry" />
        </mxCell>
        <UserObject label="" lucidchartObjectId="OyAhw8S201GqM" id="Rg4rLftVrNuiM7w5SH7Z-56">
          <mxCell style="html=1;jettySize=18;whiteSpace=wrap;fontSize=16;strokeColor=#5E5E5E;strokeOpacity=100;strokeWidth=1.5;rounded=0;startArrow=none;;endArrow=block;endFill=1;;exitX=0.988;exitY=0.5;exitPerimeter=0;entryX=0.075;entryY=0.5;entryPerimeter=0;" edge="1" parent="1" source="Rg4rLftVrNuiM7w5SH7Z-118" target="Rg4rLftVrNuiM7w5SH7Z-57">
            <mxGeometry width="100" height="100" relative="1" as="geometry">
              <Array as="points" />
            </mxGeometry>
          </mxCell>
        </UserObject>
        <UserObject label="&lt;div style=&quot;display: flex ; justify-content: center ; text-align: center ; align-items: baseline ; font-size: 16px ; line-height: 1.25 ; margin-top: -2px&quot;&gt;&lt;span style=&quot;font-size: 16px&quot;&gt;&lt;span style=&quot;font-size: 16px ; color: rgb(51 , 51 , 51) ; font-family: &amp;#34;arimo&amp;#34;&quot;&gt;print:&amp;nbsp;&lt;/span&gt;&lt;span&gt;&quot;&lt;/span&gt;&lt;span style=&quot;color: rgb(51 , 51 , 51) ; font-family: &amp;#34;arimo&amp;#34;&quot;&gt;User&lt;/span&gt;&lt;/span&gt;&lt;/div&gt;&lt;div style=&quot;display: flex ; justify-content: center ; text-align: center ; align-items: baseline ; font-size: 16px ; line-height: 1.25 ; margin-top: -2px&quot;&gt;&lt;span style=&quot;font-size: 16px&quot;&gt;&lt;span style=&quot;font-size: 16px ; color: rgb(51 , 51 , 51) ; font-family: &amp;#34;arimo&amp;#34;&quot;&gt;Successfully &lt;/span&gt;&lt;span style=&quot;font-size: 16px ; color: rgb(51 , 51 , 51) ; font-family: &amp;#34;arimo&amp;#34;&quot;&gt;&lt;br&gt;&lt;/span&gt;&lt;/span&gt;&lt;/div&gt;&lt;div style=&quot;display: flex ; justify-content: center ; text-align: center ; align-items: baseline ; font-size: 16px ; line-height: 1.25 ; margin-top: -2px&quot;&gt;&lt;span style=&quot;font-size: 16px&quot;&gt;&lt;span style=&quot;font-size: 16px ; color: rgb(51 , 51 , 51) ; font-family: &amp;#34;arimo&amp;#34;&quot;&gt;deleted&lt;/span&gt;&lt;span&gt;&quot;&lt;/span&gt;&lt;/span&gt;&lt;/div&gt;" lucidchartObjectId="8DbLSL1UyJb35" id="Rg4rLftVrNuiM7w5SH7Z-57">
          <mxCell style="html=1;overflow=block;blockSpacing=1;whiteSpace=wrap;shape=parallelogram;perimeter=parallelogramPerimeter;anchorPointDirection=0;whiteSpace=wrap;fontSize=16;fontFamily=Arimo;spacing=0;strokeColor=#6c8ebf;strokeOpacity=100;fillOpacity=100;rounded=1;absoluteArcSize=1;arcSize=14.4;fillColor=#dae8fc;strokeWidth=2.3;" vertex="1" parent="1">
            <mxGeometry x="2001" y="1644" width="209" height="127" as="geometry" />
          </mxCell>
        </UserObject>
        <UserObject label="" lucidchartObjectId="bzM9llVAUz3QN" id="Rg4rLftVrNuiM7w5SH7Z-58">
          <mxCell style="html=1;jettySize=18;whiteSpace=wrap;fontSize=16;strokeColor=#5E5E5E;strokeOpacity=100;strokeWidth=1.5;rounded=0;startArrow=none;;endArrow=block;endFill=1;;exitX=0.501;exitY=0.99;exitPerimeter=0;entryX=0.486;entryY=-0.009;entryPerimeter=0;" edge="1" parent="1" source="Rg4rLftVrNuiM7w5SH7Z-115" target="Rg4rLftVrNuiM7w5SH7Z-60">
            <mxGeometry width="100" height="100" relative="1" as="geometry">
              <Array as="points" />
            </mxGeometry>
          </mxCell>
        </UserObject>
        <UserObject label="" lucidchartObjectId="qZFeJyNcsCVX4" id="Rg4rLftVrNuiM7w5SH7Z-59">
          <mxCell style="html=1;jettySize=18;whiteSpace=wrap;fontSize=16;strokeOpacity=100;rounded=0;startArrow=none;;endArrow=block;endFill=1;;exitX=0.5;exitY=0.5;exitPerimeter=0;entryX=1.006;entryY=0.5;entryPerimeter=0;" edge="1" parent="1" source="Rg4rLftVrNuiM7w5SH7Z-60">
            <mxGeometry width="100" height="100" relative="1" as="geometry">
              <Array as="points">
                <mxPoint x="2291" y="1962" />
                <mxPoint x="2291" y="544" />
              </Array>
              <mxPoint x="862.1579999999999" y="543.5" as="targetPoint" />
            </mxGeometry>
          </mxCell>
        </UserObject>
        <UserObject label="print: &lt;br style=&quot;font-size: 16px&quot;&gt;&quot;name [name] is &lt;br style=&quot;font-size: 16px&quot;&gt;not registered&quot;&amp;nbsp;" lucidchartObjectId="aG2kt2m5jrLPZ" id="Rg4rLftVrNuiM7w5SH7Z-60">
          <mxCell style="html=1;overflow=block;blockSpacing=1;whiteSpace=wrap;shape=parallelogram;perimeter=parallelogramPerimeter;anchorPointDirection=0;whiteSpace=wrap;fontSize=16;fontFamily=Arimo;spacing=0;strokeColor=#6c8ebf;strokeOpacity=100;fillOpacity=100;rounded=1;absoluteArcSize=1;arcSize=14.4;fillColor=#dae8fc;strokeWidth=2.3;" vertex="1" parent="1">
            <mxGeometry x="1663" y="1898" width="193" height="127" as="geometry" />
          </mxCell>
        </UserObject>
        <UserObject label="&lt;div style=&quot;display: flex; justify-content: center; text-align: center; align-items: baseline; font-size: 16px; line-height: 1.25; margin-top: -2px;&quot;&gt;&lt;span style=&quot;font-size: 16px;&quot;&gt;&lt;span style=&quot;font-size: 16px; color: rgb(51, 51, 51); font-family: Arimo;&quot;&gt;Input &lt;/span&gt;&lt;span style=&quot;font-size: 16px; color: rgb(51, 51, 51); font-family: Arimo;&quot;&gt;&#xa;&lt;/span&gt;&lt;/span&gt;&lt;/div&gt;&lt;div style=&quot;display: flex; justify-content: center; text-align: center; align-items: baseline; font-size: 16px; line-height: 1.25; margin-top: -2px;&quot;&gt;&lt;span style=&quot;font-size: 16px;&quot;&gt;&lt;span style=&quot;font-size: 16px; color: rgb(51, 51, 51); font-family: Arimo;&quot;&gt;name to update&lt;/span&gt;&lt;/span&gt;&lt;/div&gt;" lucidchartObjectId="KH1g2K6hK5eux" id="Rg4rLftVrNuiM7w5SH7Z-61">
          <mxCell style="html=1;overflow=block;blockSpacing=1;whiteSpace=wrap;shape=parallelogram;perimeter=parallelogramPerimeter;anchorPointDirection=0;whiteSpace=wrap;fontSize=16;fontFamily=Arimo;spacing=0;strokeColor=#6c8ebf;strokeOpacity=100;fillOpacity=100;rounded=1;absoluteArcSize=1;arcSize=14.4;fillColor=#dae8fc;strokeWidth=2.3;" vertex="1" parent="1">
            <mxGeometry x="986" y="2112" width="193" height="127" as="geometry" />
          </mxCell>
        </UserObject>
        <UserObject label="find name in&lt;br&gt;data storage" lucidchartObjectId="jRF8H2N5gmrA9" id="Rg4rLftVrNuiM7w5SH7Z-62">
          <mxCell style="html=1;overflow=block;blockSpacing=1;whiteSpace=wrap;;whiteSpace=wrap;fontSize=16;fontFamily=Arimo;spacing=0;strokeColor=#d6b656;strokeOpacity=100;fillOpacity=100;rounded=1;absoluteArcSize=1;arcSize=14.4;fillColor=#fff2cc;strokeWidth=2.3;" vertex="1" parent="1">
            <mxGeometry x="1267" y="903" width="193" height="127" as="geometry" />
          </mxCell>
        </UserObject>
        <UserObject label="" lucidchartObjectId="BIdQukzURLxwd" id="Rg4rLftVrNuiM7w5SH7Z-63">
          <mxCell style="html=1;jettySize=18;whiteSpace=wrap;fontSize=16;strokeColor=#5E5E5E;strokeOpacity=100;strokeWidth=1.5;rounded=0;startArrow=none;;endArrow=block;endFill=1;;exitX=0.919;exitY=0.5;exitPerimeter=0;entryX=-0.006;entryY=0.5;entryPerimeter=0;" edge="1" parent="1" source="Rg4rLftVrNuiM7w5SH7Z-61" target="Rg4rLftVrNuiM7w5SH7Z-65">
            <mxGeometry width="100" height="100" relative="1" as="geometry">
              <Array as="points" />
            </mxGeometry>
          </mxCell>
        </UserObject>
        <mxCell id="Rg4rLftVrNuiM7w5SH7Z-64" value="" style="text;html=1;resizable=0;labelBackgroundColor=#ffffff;align=center;verticalAlign=middle;fontColor=#000000;;fontSize=16;" vertex="1" parent="Rg4rLftVrNuiM7w5SH7Z-63">
          <mxGeometry relative="1" as="geometry" />
        </mxCell>
        <UserObject label="find name in&lt;br&gt;data storage" lucidchartObjectId="qbEk8KcS56wMB" id="Rg4rLftVrNuiM7w5SH7Z-65">
          <mxCell style="html=1;overflow=block;blockSpacing=1;whiteSpace=wrap;;whiteSpace=wrap;fontSize=16;fontFamily=Arimo;spacing=0;strokeColor=#d6b656;strokeOpacity=100;fillOpacity=100;rounded=1;absoluteArcSize=1;arcSize=14.4;fillColor=#fff2cc;strokeWidth=2.3;" vertex="1" parent="1">
            <mxGeometry x="1301" y="2112" width="193" height="127" as="geometry" />
          </mxCell>
        </UserObject>
        <UserObject label="" lucidchartObjectId="eMxvugzR5lMcG" id="Rg4rLftVrNuiM7w5SH7Z-66">
          <mxCell style="html=1;jettySize=18;whiteSpace=wrap;fontSize=16;strokeColor=#5E5E5E;strokeOpacity=100;strokeWidth=1.5;rounded=0;startArrow=none;;endArrow=block;endFill=1;;exitX=1.006;exitY=0.5;exitPerimeter=0;entryX=0.012;entryY=0.5;entryPerimeter=0;" edge="1" parent="1" source="Rg4rLftVrNuiM7w5SH7Z-65" target="Rg4rLftVrNuiM7w5SH7Z-69">
            <mxGeometry width="100" height="100" relative="1" as="geometry">
              <Array as="points">
                <mxPoint x="1565" y="2175" />
                <mxPoint x="1565" y="2174" />
              </Array>
            </mxGeometry>
          </mxCell>
        </UserObject>
        <mxCell id="Rg4rLftVrNuiM7w5SH7Z-67" value="" style="text;html=1;resizable=0;labelBackgroundColor=#ffffff;align=center;verticalAlign=middle;fontColor=#000000;;fontSize=16;" vertex="1" parent="Rg4rLftVrNuiM7w5SH7Z-66">
          <mxGeometry relative="1" as="geometry" />
        </mxCell>
        <UserObject label="" lucidchartObjectId="2AITn2sW7DUuY" id="Rg4rLftVrNuiM7w5SH7Z-68">
          <mxCell style="html=1;jettySize=18;whiteSpace=wrap;fontSize=16;strokeOpacity=100;rounded=0;startArrow=none;;endArrow=block;endFill=1;;exitX=0.502;exitY=1;exitPerimeter=0;" edge="1" parent="1" source="Rg4rLftVrNuiM7w5SH7Z-81">
            <mxGeometry width="100" height="100" relative="1" as="geometry">
              <Array as="points" />
              <mxPoint x="1736" y="2336" as="targetPoint" />
            </mxGeometry>
          </mxCell>
        </UserObject>
        <mxCell id="Rg4rLftVrNuiM7w5SH7Z-69" value="does name exists?" style="html=1;overflow=block;blockSpacing=1;whiteSpace=wrap;rhombus;whiteSpace=wrap;fontSize=16;fontFamily=Arimo;spacing=0;strokeColor=#d79b00;strokeOpacity=100;fillOpacity=100;rounded=1;absoluteArcSize=1;arcSize=14.4;fillColor=#ffe6cc;strokeWidth=2.3;" vertex="1" parent="1">
          <mxGeometry x="1639" y="2110" width="193" height="127" as="geometry" />
        </mxCell>
        <UserObject label="" lucidchartObjectId="hS8A1E6pkMULI" id="Rg4rLftVrNuiM7w5SH7Z-70">
          <mxCell style="html=1;jettySize=18;whiteSpace=wrap;fontSize=16;strokeColor=#5E5E5E;strokeOpacity=100;strokeWidth=1.5;rounded=0;startArrow=none;;endArrow=block;endFill=1;;exitX=0.988;exitY=0.5;exitPerimeter=0;entryX=0.081;entryY=0.5;entryPerimeter=0;" edge="1" parent="1" source="Rg4rLftVrNuiM7w5SH7Z-121" target="Rg4rLftVrNuiM7w5SH7Z-71">
            <mxGeometry width="100" height="100" relative="1" as="geometry">
              <Array as="points" />
            </mxGeometry>
          </mxCell>
        </UserObject>
        <UserObject label="&lt;div style=&quot;display: flex ; justify-content: center ; text-align: center ; align-items: baseline ; font-size: 16px ; line-height: 1.25 ; margin-top: -2px&quot;&gt;&lt;span style=&quot;font-size: 16px&quot;&gt;&lt;span style=&quot;font-size: 16px ; color: rgb(51 , 51 , 51) ; font-family: &amp;#34;arimo&amp;#34;&quot;&gt;Input new age&lt;/span&gt;&lt;span style=&quot;font-size: 16px ; color: rgb(51 , 51 , 51) ; font-family: &amp;#34;arimo&amp;#34;&quot;&gt;&lt;br&gt;&lt;/span&gt;&lt;/span&gt;&lt;/div&gt;&lt;div style=&quot;display: flex ; justify-content: center ; text-align: center ; align-items: baseline ; font-size: 16px ; line-height: 1.25 ; margin-top: -2px&quot;&gt;&lt;span style=&quot;font-size: 16px&quot;&gt;&lt;span style=&quot;font-size: 16px ; color: rgb(51 , 51 , 51) ; font-family: &amp;#34;arimo&amp;#34;&quot;&gt;for the name inputted&lt;/span&gt;&lt;/span&gt;&lt;/div&gt;" lucidchartObjectId="BqF6MlUl4tmTE" id="Rg4rLftVrNuiM7w5SH7Z-71">
          <mxCell style="html=1;overflow=block;blockSpacing=1;whiteSpace=wrap;shape=parallelogram;perimeter=parallelogramPerimeter;anchorPointDirection=0;whiteSpace=wrap;fontSize=16;fontFamily=Arimo;spacing=0;strokeColor=#6c8ebf;strokeOpacity=100;fillOpacity=100;rounded=1;absoluteArcSize=1;arcSize=14.4;fillColor=#dae8fc;strokeWidth=2.3;" vertex="1" parent="1">
            <mxGeometry x="1977" y="2110" width="193" height="127" as="geometry" />
          </mxCell>
        </UserObject>
        <UserObject label="" lucidchartObjectId="cezWWxXS3JJCL" id="Rg4rLftVrNuiM7w5SH7Z-72">
          <mxCell style="html=1;jettySize=18;whiteSpace=wrap;fontSize=16;strokeColor=#5E5E5E;strokeOpacity=100;strokeWidth=1.5;rounded=0;startArrow=none;;endArrow=block;endFill=1;;exitX=0.919;exitY=0.5;exitPerimeter=0;entryX=-0.006;entryY=0.5;entryPerimeter=0;" edge="1" parent="1" source="Rg4rLftVrNuiM7w5SH7Z-71" target="Rg4rLftVrNuiM7w5SH7Z-74">
            <mxGeometry width="100" height="100" relative="1" as="geometry">
              <Array as="points" />
            </mxGeometry>
          </mxCell>
        </UserObject>
        <mxCell id="Rg4rLftVrNuiM7w5SH7Z-73" value="" style="text;html=1;resizable=0;labelBackgroundColor=#ffffff;align=center;verticalAlign=middle;fontColor=#000000;;fontSize=16;" vertex="1" parent="Rg4rLftVrNuiM7w5SH7Z-72">
          <mxGeometry relative="1" as="geometry" />
        </mxCell>
        <UserObject label="Replace age of &lt;br&gt;existing name in&lt;br&gt;data storage" lucidchartObjectId="w2Kx5Xk1EAsos" id="Rg4rLftVrNuiM7w5SH7Z-74">
          <mxCell style="html=1;overflow=block;blockSpacing=1;whiteSpace=wrap;;whiteSpace=wrap;fontSize=16;fontFamily=Arimo;spacing=0;strokeColor=#d6b656;strokeOpacity=100;fillOpacity=100;rounded=1;absoluteArcSize=1;arcSize=14.4;fillColor=#fff2cc;strokeWidth=2.3;" vertex="1" parent="1">
            <mxGeometry x="2267" y="2110" width="193" height="127" as="geometry" />
          </mxCell>
        </UserObject>
        <UserObject label="" lucidchartObjectId="kSHZahQb0q1IU" id="Rg4rLftVrNuiM7w5SH7Z-75">
          <mxCell style="html=1;jettySize=18;whiteSpace=wrap;fontSize=16;strokeColor=#5E5E5E;strokeOpacity=100;strokeWidth=1.5;rounded=0;startArrow=none;;endArrow=block;endFill=1;;exitX=1.006;exitY=0.5;exitPerimeter=0;entryX=0.081;entryY=0.5;entryPerimeter=0;" edge="1" parent="1" source="Rg4rLftVrNuiM7w5SH7Z-74" target="Rg4rLftVrNuiM7w5SH7Z-78">
            <mxGeometry width="100" height="100" relative="1" as="geometry">
              <Array as="points" />
            </mxGeometry>
          </mxCell>
        </UserObject>
        <mxCell id="Rg4rLftVrNuiM7w5SH7Z-76" value="" style="text;html=1;resizable=0;labelBackgroundColor=#ffffff;align=center;verticalAlign=middle;fontColor=#000000;;fontSize=16;" vertex="1" parent="Rg4rLftVrNuiM7w5SH7Z-75">
          <mxGeometry relative="1" as="geometry" />
        </mxCell>
        <UserObject label="" lucidchartObjectId="BszSOsHUfOYCP" id="Rg4rLftVrNuiM7w5SH7Z-77">
          <mxCell style="html=1;jettySize=18;whiteSpace=wrap;fontSize=16;strokeOpacity=100;rounded=0;startArrow=none;;endArrow=block;endFill=1;;exitX=0.5;exitY=0.5;exitPerimeter=0;entryX=1.006;entryY=0.5;entryPerimeter=0;" edge="1" parent="1" source="Rg4rLftVrNuiM7w5SH7Z-78">
            <mxGeometry width="100" height="100" relative="1" as="geometry">
              <Array as="points">
                <mxPoint x="2855" y="2174" />
                <mxPoint x="2855" y="544" />
              </Array>
              <mxPoint x="862.1579999999999" y="543.5" as="targetPoint" />
            </mxGeometry>
          </mxCell>
        </UserObject>
        <UserObject label="&lt;div style=&quot;display: flex ; justify-content: center ; text-align: center ; align-items: baseline ; font-size: 16px ; line-height: 1.25 ; margin-top: -2px&quot;&gt;&lt;span style=&quot;font-size: 16px&quot;&gt;&lt;span style=&quot;font-size: 16px ; color: rgb(51 , 51 , 51) ; font-family: &amp;#34;arimo&amp;#34;&quot;&gt;print:&amp;nbsp;&lt;/span&gt;&lt;span&gt;&quot;&lt;/span&gt;&lt;span style=&quot;color: rgb(51 , 51 , 51) ; font-family: &amp;#34;arimo&amp;#34;&quot;&gt;name&lt;/span&gt;&lt;/span&gt;&lt;/div&gt;&lt;div style=&quot;display: flex ; justify-content: center ; text-align: center ; align-items: baseline ; font-size: 16px ; line-height: 1.25 ; margin-top: -2px&quot;&gt;&lt;span style=&quot;font-size: 16px&quot;&gt;&lt;span style=&quot;font-size: 16px ; color: rgb(51 , 51 , 51) ; font-family: &amp;#34;arimo&amp;#34;&quot;&gt;successfully &lt;/span&gt;&lt;span style=&quot;font-size: 16px ; color: rgb(51 , 51 , 51) ; font-family: &amp;#34;arimo&amp;#34;&quot;&gt;&lt;br&gt;&lt;/span&gt;&lt;/span&gt;&lt;/div&gt;&lt;div style=&quot;display: flex ; justify-content: center ; text-align: center ; align-items: baseline ; font-size: 16px ; line-height: 1.25 ; margin-top: -2px&quot;&gt;&lt;span style=&quot;font-size: 16px&quot;&gt;&lt;span style=&quot;font-size: 16px ; color: rgb(51 , 51 , 51) ; font-family: &amp;#34;arimo&amp;#34;&quot;&gt;updated&lt;/span&gt;&lt;span&gt;&quot;&lt;/span&gt;&lt;/span&gt;&lt;/div&gt;" lucidchartObjectId="p3cLQniQDBnhX" id="Rg4rLftVrNuiM7w5SH7Z-78">
          <mxCell style="html=1;overflow=block;blockSpacing=1;whiteSpace=wrap;shape=parallelogram;perimeter=parallelogramPerimeter;anchorPointDirection=0;whiteSpace=wrap;fontSize=16;fontFamily=Arimo;spacing=0;strokeColor=#6c8ebf;strokeOpacity=100;fillOpacity=100;rounded=1;absoluteArcSize=1;arcSize=14.4;fillColor=#dae8fc;strokeWidth=2.3;" vertex="1" parent="1">
            <mxGeometry x="2605" y="2110" width="193" height="127" as="geometry" />
          </mxCell>
        </UserObject>
        <UserObject label="" lucidchartObjectId="jepP2Y1xrRMJ3" id="Rg4rLftVrNuiM7w5SH7Z-79">
          <mxCell style="html=1;jettySize=18;whiteSpace=wrap;fontSize=16;strokeColor=#5E5E5E;strokeOpacity=100;strokeWidth=1.5;rounded=0;startArrow=none;;endArrow=block;endFill=1;;exitX=0.925;exitY=0.5;exitPerimeter=0;entryX=1.006;entryY=0.5;entryPerimeter=0;" edge="1" parent="1" source="Rg4rLftVrNuiM7w5SH7Z-57">
            <mxGeometry width="100" height="100" relative="1" as="geometry">
              <Array as="points">
                <mxPoint x="2243" y="1708" />
                <mxPoint x="2243" y="544" />
              </Array>
              <mxPoint x="862.1579999999999" y="543.5" as="targetPoint" />
            </mxGeometry>
          </mxCell>
        </UserObject>
        <mxCell id="Rg4rLftVrNuiM7w5SH7Z-80" value="" style="text;html=1;resizable=0;labelBackgroundColor=#ffffff;align=center;verticalAlign=middle;fontColor=#000000;;fontSize=16;" vertex="1" parent="Rg4rLftVrNuiM7w5SH7Z-79">
          <mxGeometry relative="1" as="geometry" />
        </mxCell>
        <UserObject label="No" lucidchartObjectId="Gy7DNcAgzIxfx" id="Rg4rLftVrNuiM7w5SH7Z-81">
          <mxCell style="html=1;overflow=block;blockSpacing=1;whiteSpace=wrap;;whiteSpace=wrap;fontSize=16;fontFamily=Arimo;fontColor=#000000;align=center;spacing=0;strokeOpacity=0;fillOpacity=0;fillColor=#000000;" vertex="1" parent="1">
            <mxGeometry x="1703.5" y="2270" width="64" height="28" as="geometry" />
          </mxCell>
        </UserObject>
        <UserObject label="" lucidchartObjectId="E9qVLtB3a7520" id="Rg4rLftVrNuiM7w5SH7Z-82">
          <mxCell style="html=1;jettySize=18;whiteSpace=wrap;fontSize=16;strokeOpacity=100;rounded=0;startArrow=none;;endArrow=none;;exitX=0.501;exitY=0.99;exitPerimeter=0;entryX=0.5;entryY=0;entryDx=0;entryDy=0;" edge="1" parent="1" source="Rg4rLftVrNuiM7w5SH7Z-69" target="Rg4rLftVrNuiM7w5SH7Z-81">
            <mxGeometry width="100" height="100" relative="1" as="geometry" />
          </mxCell>
        </UserObject>
        <UserObject label="" lucidchartObjectId="bAE1C2tnJipXk" id="Rg4rLftVrNuiM7w5SH7Z-83">
          <mxCell style="html=1;jettySize=18;whiteSpace=wrap;fontSize=16;strokeOpacity=100;rounded=0;startArrow=none;;endArrow=block;endFill=1;;exitX=0.5;exitY=0.5;exitPerimeter=0;entryX=1.006;entryY=0.5;entryPerimeter=0;" edge="1" parent="1" source="Rg4rLftVrNuiM7w5SH7Z-84">
            <mxGeometry width="100" height="100" relative="1" as="geometry">
              <Array as="points">
                <mxPoint x="2936" y="2378" />
                <mxPoint x="2936" y="544" />
              </Array>
              <mxPoint x="862.1579999999999" y="543.5" as="targetPoint" />
            </mxGeometry>
          </mxCell>
        </UserObject>
        <UserObject label="print: &lt;br style=&quot;font-size: 16px&quot;&gt;&quot;name [name] is &lt;br style=&quot;font-size: 16px&quot;&gt;not registered&quot;" lucidchartObjectId="o4SUtpp4e2rac" id="Rg4rLftVrNuiM7w5SH7Z-84">
          <mxCell style="html=1;overflow=block;blockSpacing=1;whiteSpace=wrap;shape=parallelogram;perimeter=parallelogramPerimeter;anchorPointDirection=0;whiteSpace=wrap;fontSize=16;fontFamily=Arimo;spacing=0;strokeOpacity=100;fillOpacity=100;fillColor=#dae8fc;strokeColor=#6c8ebf;" vertex="1" parent="1">
            <mxGeometry x="1639" y="2336" width="193" height="85" as="geometry" />
          </mxCell>
        </UserObject>
        <UserObject label="END" lucidchartObjectId="esuI8JpX2dUEU" id="Rg4rLftVrNuiM7w5SH7Z-85">
          <mxCell style="html=1;overflow=block;blockSpacing=1;whiteSpace=wrap;ellipse;whiteSpace=wrap;fontSize=16;fontFamily=Arimo;spacing=0;strokeOpacity=100;fillOpacity=100;fillColor=#f8cecc;strokeColor=#b85450;" vertex="1" parent="1">
            <mxGeometry x="668" y="2731" width="193" height="113" as="geometry" />
          </mxCell>
        </UserObject>
        <UserObject label="No" lucidchartObjectId="oMLCtlttS3Crg" id="Rg4rLftVrNuiM7w5SH7Z-86">
          <mxCell style="html=1;overflow=block;blockSpacing=1;whiteSpace=wrap;;whiteSpace=wrap;fontSize=16;fontFamily=Arimo;fontColor=#000000;align=center;spacing=0;strokeOpacity=0;fillOpacity=0;fillColor=#000000;" vertex="1" parent="1">
            <mxGeometry x="732" y="2646" width="64" height="28" as="geometry" />
          </mxCell>
        </UserObject>
        <UserObject label="" lucidchartObjectId="eclVdJxN3enJa" id="Rg4rLftVrNuiM7w5SH7Z-87">
          <mxCell style="html=1;jettySize=18;whiteSpace=wrap;fontSize=16;strokeOpacity=100;rounded=0;startArrow=none;;endArrow=none;;exitX=0.501;exitY=0.99;exitPerimeter=0;entryX=0.502;entryY=0;entryPerimeter=0;" edge="1" parent="1" source="Rg4rLftVrNuiM7w5SH7Z-19" target="Rg4rLftVrNuiM7w5SH7Z-86">
            <mxGeometry width="100" height="100" relative="1" as="geometry">
              <Array as="points" />
            </mxGeometry>
          </mxCell>
        </UserObject>
        <UserObject label="" lucidchartObjectId="RUG7X0FTpoh6a" id="Rg4rLftVrNuiM7w5SH7Z-88">
          <mxCell style="html=1;jettySize=18;whiteSpace=wrap;fontSize=16;strokeOpacity=100;rounded=0;startArrow=none;;endArrow=block;endFill=1;;exitX=1;exitY=0.5;entryX=1;entryY=0.5;entryDx=0;entryDy=0;exitDx=0;exitDy=0;" edge="1" parent="1" source="Rg4rLftVrNuiM7w5SH7Z-89" target="Rg4rLftVrNuiM7w5SH7Z-90">
            <mxGeometry width="100" height="100" relative="1" as="geometry">
              <Array as="points">
                <mxPoint x="3000" y="2557" />
                <mxPoint x="3000" y="544" />
              </Array>
              <mxPoint x="862.1579999999999" y="543.5" as="targetPoint" />
            </mxGeometry>
          </mxCell>
        </UserObject>
        <UserObject label="&lt;div style=&quot;display: flex ; justify-content: center ; text-align: center ; align-items: baseline ; font-size: 16px ; line-height: 1.25 ; margin-top: -2px&quot;&gt;&lt;span style=&quot;font-size: 16px&quot;&gt;&lt;span style=&quot;font-size: 16px ; color: rgb(0 , 0 , 0) ; font-family: &amp;#34;arimo&amp;#34;&quot;&gt;print:&lt;/span&gt;&lt;span style=&quot;font-size: 16px ; color: rgb(0 , 0 , 0) ; font-family: &amp;#34;arimo&amp;#34;&quot;&gt;&lt;br&gt;&lt;/span&gt;&lt;/span&gt;&lt;/div&gt;&lt;div style=&quot;display: flex ; justify-content: center ; text-align: center ; align-items: baseline ; font-size: 16px ; line-height: 1.25 ; margin-top: -2px&quot;&gt;&lt;span style=&quot;font-size: 16px&quot;&gt;&lt;span style=&quot;font-size: 16px ; color: rgb(0 , 0 , 0) ; font-family: &amp;#34;arimo&amp;#34;&quot;&gt;all names and age&lt;br&gt;in data storage&lt;/span&gt;&lt;/span&gt;&lt;/div&gt;" lucidchartObjectId="JsWxY2wNa4UZH" id="Rg4rLftVrNuiM7w5SH7Z-89">
          <mxCell style="html=1;overflow=block;blockSpacing=1;whiteSpace=wrap;shape=parallelogram;perimeter=parallelogramPerimeter;anchorPointDirection=0;whiteSpace=wrap;fontSize=16;fontFamily=Arimo;spacing=0;strokeOpacity=100;fillOpacity=100;fillColor=#dae8fc;strokeColor=#6c8ebf;" vertex="1" parent="1">
            <mxGeometry x="1011" y="2515" width="193" height="85" as="geometry" />
          </mxCell>
        </UserObject>
        <mxCell id="Rg4rLftVrNuiM7w5SH7Z-90" value="Start Dashboard" style="ellipse;whiteSpace=wrap;html=1;fontSize=16;labelBackgroundColor=none;fillColor=#f8cecc;strokeColor=#b85450;" vertex="1" parent="1">
          <mxGeometry x="651.75" y="480" width="224.5" height="123.5" as="geometry" />
        </mxCell>
        <UserObject label="Yes" lucidchartObjectId="fsFMsucbAJs7h" id="Rg4rLftVrNuiM7w5SH7Z-91">
          <mxCell style="html=1;overflow=block;blockSpacing=1;whiteSpace=wrap;;whiteSpace=wrap;fontSize=16;fontFamily=Arimo;fontColor=#333333;fontStyle=1;align=center;spacing=0;strokeOpacity=0;fillOpacity=0;fillColor=#000000;" vertex="1" parent="1">
            <mxGeometry x="905" y="1700" width="54" height="15" as="geometry" />
          </mxCell>
        </UserObject>
        <mxCell id="Rg4rLftVrNuiM7w5SH7Z-92" value="" style="html=1;jettySize=18;whiteSpace=wrap;fontSize=16;strokeColor=#5E5E5E;strokeOpacity=100;strokeWidth=1.5;rounded=0;startArrow=none;;endArrow=none;endFill=1;;exitX=0.988;exitY=0.5;exitPerimeter=0;entryX=0.081;entryY=0.5;entryPerimeter=0;" edge="1" parent="1" source="Rg4rLftVrNuiM7w5SH7Z-12" target="Rg4rLftVrNuiM7w5SH7Z-91">
          <mxGeometry width="100" height="100" relative="1" as="geometry">
            <Array as="points" />
            <mxPoint x="858.684" y="1707.4999999999998" as="sourcePoint" />
            <mxPoint x="1026.633" y="1707.4999999999998" as="targetPoint" />
          </mxGeometry>
        </mxCell>
        <mxCell id="Rg4rLftVrNuiM7w5SH7Z-93" value="" style="text;html=1;resizable=0;labelBackgroundColor=#ffffff;align=center;verticalAlign=middle;fontStyle=1;fontColor=#333333;;fontSize=16;" vertex="1" parent="Rg4rLftVrNuiM7w5SH7Z-92">
          <mxGeometry relative="1" as="geometry" />
        </mxCell>
        <UserObject label="No" lucidchartObjectId="HYHEjRyqEFvx6" id="Rg4rLftVrNuiM7w5SH7Z-94">
          <mxCell style="html=1;overflow=block;blockSpacing=1;whiteSpace=wrap;;whiteSpace=wrap;fontSize=16;fontFamily=Arimo;fontColor=#333333;fontStyle=1;align=center;spacing=0;strokeOpacity=0;fillOpacity=0;fillColor=#000000;" vertex="1" parent="1">
            <mxGeometry x="737" y="1930" width="54" height="15" as="geometry" />
          </mxCell>
        </UserObject>
        <mxCell id="Rg4rLftVrNuiM7w5SH7Z-95" value="" style="html=1;jettySize=18;whiteSpace=wrap;fontSize=16;strokeColor=#5E5E5E;strokeOpacity=100;strokeWidth=1.5;rounded=0;startArrow=none;;endArrow=none;endFill=1;;exitX=0.501;exitY=0.99;exitPerimeter=0;entryX=0.501;entryY=0.01;entryPerimeter=0;" edge="1" parent="1" source="Rg4rLftVrNuiM7w5SH7Z-12" target="Rg4rLftVrNuiM7w5SH7Z-94">
          <mxGeometry width="100" height="100" relative="1" as="geometry">
            <Array as="points" />
            <mxPoint x="764.693" y="1769.73" as="sourcePoint" />
            <mxPoint x="764.693" y="2113.27" as="targetPoint" />
          </mxGeometry>
        </mxCell>
        <mxCell id="Rg4rLftVrNuiM7w5SH7Z-96" value="" style="text;html=1;resizable=0;labelBackgroundColor=#ffffff;align=center;verticalAlign=middle;fontStyle=1;fontColor=#333333;;fontSize=16;" vertex="1" parent="Rg4rLftVrNuiM7w5SH7Z-95">
          <mxGeometry relative="1" as="geometry" />
        </mxCell>
        <UserObject label="No" lucidchartObjectId="r5GyLUVXUsBRa" id="Rg4rLftVrNuiM7w5SH7Z-97">
          <mxCell style="html=1;overflow=block;blockSpacing=1;whiteSpace=wrap;;whiteSpace=wrap;fontSize=16;fontFamily=Arimo;fontColor=#333333;fontStyle=1;align=center;spacing=0;strokeOpacity=0;fillOpacity=0;fillColor=#000000;" vertex="1" parent="1">
            <mxGeometry x="737" y="1552" width="54" height="15" as="geometry" />
          </mxCell>
        </UserObject>
        <mxCell id="Rg4rLftVrNuiM7w5SH7Z-98" value="" style="html=1;jettySize=18;whiteSpace=wrap;fontSize=16;strokeColor=#5E5E5E;strokeOpacity=100;strokeWidth=1.5;rounded=0;startArrow=none;;endArrow=none;endFill=1;;exitX=0.501;exitY=0.99;exitPerimeter=0;entryX=0.501;entryY=0.01;entryPerimeter=0;" edge="1" parent="1" source="Rg4rLftVrNuiM7w5SH7Z-9" target="Rg4rLftVrNuiM7w5SH7Z-97">
          <mxGeometry width="100" height="100" relative="1" as="geometry">
            <Array as="points" />
            <mxPoint x="764.693" y="1473.73" as="sourcePoint" />
            <mxPoint x="764.693" y="1645.27" as="targetPoint" />
          </mxGeometry>
        </mxCell>
        <mxCell id="Rg4rLftVrNuiM7w5SH7Z-99" value="" style="text;html=1;resizable=0;labelBackgroundColor=#ffffff;align=center;verticalAlign=middle;fontStyle=1;fontColor=#333333;;fontSize=16;" vertex="1" parent="Rg4rLftVrNuiM7w5SH7Z-98">
          <mxGeometry relative="1" as="geometry" />
        </mxCell>
        <UserObject label="Yes" lucidchartObjectId="LnOcWZbwFwakP" id="Rg4rLftVrNuiM7w5SH7Z-100">
          <mxCell style="html=1;overflow=block;blockSpacing=1;whiteSpace=wrap;;whiteSpace=wrap;fontSize=16;fontFamily=Arimo;fontColor=#333333;fontStyle=1;align=center;spacing=0;strokeOpacity=0;fillOpacity=0;fillColor=#000000;" vertex="1" parent="1">
            <mxGeometry x="917" y="1404" width="54" height="15" as="geometry" />
          </mxCell>
        </UserObject>
        <mxCell id="Rg4rLftVrNuiM7w5SH7Z-101" value="" style="html=1;jettySize=18;whiteSpace=wrap;fontSize=16;strokeColor=#5E5E5E;strokeOpacity=100;strokeWidth=1.5;rounded=0;startArrow=none;;endArrow=none;endFill=1;;exitX=0.988;exitY=0.5;exitPerimeter=0;entryX=0.081;entryY=0.5;entryPerimeter=0;" edge="1" parent="1" source="Rg4rLftVrNuiM7w5SH7Z-9" target="Rg4rLftVrNuiM7w5SH7Z-100">
          <mxGeometry width="100" height="100" relative="1" as="geometry">
            <Array as="points" />
            <mxPoint x="858.684" y="1411.5" as="sourcePoint" />
            <mxPoint x="1026.633" y="1411.5" as="targetPoint" />
          </mxGeometry>
        </mxCell>
        <mxCell id="Rg4rLftVrNuiM7w5SH7Z-102" value="" style="text;html=1;resizable=0;labelBackgroundColor=#ffffff;align=center;verticalAlign=middle;fontStyle=1;fontColor=#333333;;fontSize=16;" vertex="1" parent="Rg4rLftVrNuiM7w5SH7Z-101">
          <mxGeometry relative="1" as="geometry" />
        </mxCell>
        <UserObject label="No" lucidchartObjectId="uo93dQeefCGjb" id="Rg4rLftVrNuiM7w5SH7Z-103">
          <mxCell style="html=1;overflow=block;blockSpacing=1;whiteSpace=wrap;;whiteSpace=wrap;fontSize=16;fontFamily=Arimo;fontColor=#333333;fontStyle=1;align=center;spacing=0;strokeOpacity=0;fillOpacity=0;fillColor=#000000;" vertex="1" parent="1">
            <mxGeometry x="737" y="1182" width="54" height="15" as="geometry" />
          </mxCell>
        </UserObject>
        <mxCell id="Rg4rLftVrNuiM7w5SH7Z-104" value="" style="html=1;jettySize=18;whiteSpace=wrap;fontSize=16;strokeColor=#5E5E5E;strokeOpacity=100;strokeWidth=1.5;rounded=0;startArrow=none;;endArrow=none;endFill=1;;exitX=0.501;exitY=0.99;exitPerimeter=0;entryX=0.501;entryY=0.01;entryPerimeter=0;" edge="1" parent="1" source="Rg4rLftVrNuiM7w5SH7Z-6" target="Rg4rLftVrNuiM7w5SH7Z-103">
          <mxGeometry width="100" height="100" relative="1" as="geometry">
            <Array as="points" />
            <mxPoint x="764.693" y="1028.73" as="sourcePoint" />
            <mxPoint x="764.693" y="1349.27" as="targetPoint" />
          </mxGeometry>
        </mxCell>
        <mxCell id="Rg4rLftVrNuiM7w5SH7Z-105" value="" style="text;html=1;resizable=0;labelBackgroundColor=#ffffff;align=center;verticalAlign=middle;fontStyle=1;fontColor=#333333;;fontSize=16;" vertex="1" parent="Rg4rLftVrNuiM7w5SH7Z-104">
          <mxGeometry relative="1" as="geometry" />
        </mxCell>
        <UserObject label="Yes" lucidchartObjectId="4p6zTxfYVxLZB" id="Rg4rLftVrNuiM7w5SH7Z-106">
          <mxCell style="html=1;overflow=block;blockSpacing=1;whiteSpace=wrap;;whiteSpace=wrap;fontSize=16;fontFamily=Arimo;fontColor=#333333;fontStyle=1;align=center;spacing=0;strokeOpacity=0;fillOpacity=0;fillColor=#000000;" vertex="1" parent="1">
            <mxGeometry x="905" y="959" width="54" height="15" as="geometry" />
          </mxCell>
        </UserObject>
        <mxCell id="Rg4rLftVrNuiM7w5SH7Z-107" value="" style="html=1;jettySize=18;whiteSpace=wrap;fontSize=16;strokeColor=#5E5E5E;strokeOpacity=100;strokeWidth=1.5;rounded=0;startArrow=none;;endArrow=none;endFill=1;;exitX=0.988;exitY=0.5;exitPerimeter=0;entryX=0.081;entryY=0.5;entryPerimeter=0;" edge="1" parent="1" source="Rg4rLftVrNuiM7w5SH7Z-6" target="Rg4rLftVrNuiM7w5SH7Z-106">
          <mxGeometry width="100" height="100" relative="1" as="geometry">
            <Array as="points" />
            <mxPoint x="858.684" y="966.5" as="sourcePoint" />
            <mxPoint x="1001.6329999999998" y="966.5" as="targetPoint" />
          </mxGeometry>
        </mxCell>
        <mxCell id="Rg4rLftVrNuiM7w5SH7Z-108" value="" style="text;html=1;resizable=0;labelBackgroundColor=#ffffff;align=center;verticalAlign=middle;fontStyle=1;fontColor=#333333;;fontSize=16;" vertex="1" parent="Rg4rLftVrNuiM7w5SH7Z-107">
          <mxGeometry relative="1" as="geometry" />
        </mxCell>
        <UserObject label="Yes" lucidchartObjectId="VGrkmYbNxTUxF" id="Rg4rLftVrNuiM7w5SH7Z-109">
          <mxCell style="html=1;overflow=block;blockSpacing=1;whiteSpace=wrap;;whiteSpace=wrap;fontSize=16;fontFamily=Arimo;fontColor=#333333;fontStyle=1;align=center;spacing=0;strokeOpacity=0;fillOpacity=0;fillColor=#000000;" vertex="1" parent="1">
            <mxGeometry x="1778" y="959" width="54" height="15" as="geometry" />
          </mxCell>
        </UserObject>
        <mxCell id="Rg4rLftVrNuiM7w5SH7Z-110" value="" style="html=1;jettySize=18;whiteSpace=wrap;fontSize=16;strokeColor=#5E5E5E;strokeOpacity=100;strokeWidth=1.5;rounded=0;startArrow=none;;endArrow=none;endFill=1;;exitX=0.988;exitY=0.5;exitPerimeter=0;entryX=0.072;entryY=0.5;entryPerimeter=0;" edge="1" parent="1" source="Rg4rLftVrNuiM7w5SH7Z-26" target="Rg4rLftVrNuiM7w5SH7Z-109">
          <mxGeometry width="100" height="100" relative="1" as="geometry">
            <Array as="points" />
            <mxPoint x="1735.6839999999997" y="966.5" as="sourcePoint" />
            <mxPoint x="1874.6239999999998" y="966.5" as="targetPoint" />
          </mxGeometry>
        </mxCell>
        <mxCell id="Rg4rLftVrNuiM7w5SH7Z-111" value="" style="text;html=1;resizable=0;labelBackgroundColor=#ffffff;align=center;verticalAlign=middle;fontStyle=1;fontColor=#333333;;fontSize=16;" vertex="1" parent="Rg4rLftVrNuiM7w5SH7Z-110">
          <mxGeometry relative="1" as="geometry" />
        </mxCell>
        <UserObject label="No" lucidchartObjectId="XnZ2pS2op2tYt" id="Rg4rLftVrNuiM7w5SH7Z-112">
          <mxCell style="html=1;overflow=block;blockSpacing=1;whiteSpace=wrap;;whiteSpace=wrap;fontSize=16;fontFamily=Arimo;fontColor=#333333;fontStyle=1;align=center;spacing=0;strokeOpacity=0;fillOpacity=0;fillColor=#000000;" vertex="1" parent="1">
            <mxGeometry x="1614" y="1060" width="54" height="15" as="geometry" />
          </mxCell>
        </UserObject>
        <mxCell id="Rg4rLftVrNuiM7w5SH7Z-113" value="" style="html=1;jettySize=18;whiteSpace=wrap;fontSize=16;strokeColor=#5E5E5E;strokeOpacity=100;strokeWidth=1.5;rounded=0;startArrow=none;;endArrow=none;endFill=1;;exitX=0.501;exitY=0.99;exitPerimeter=0;entryX=0.486;entryY=-0.009;entryPerimeter=0;" edge="1" parent="1" source="Rg4rLftVrNuiM7w5SH7Z-26" target="Rg4rLftVrNuiM7w5SH7Z-112">
          <mxGeometry width="100" height="100" relative="1" as="geometry">
            <Array as="points" />
            <mxPoint x="1641.6929999999998" y="1028.73" as="sourcePoint" />
            <mxPoint x="1638.7979999999998" y="1113.857" as="targetPoint" />
          </mxGeometry>
        </mxCell>
        <mxCell id="Rg4rLftVrNuiM7w5SH7Z-114" value="" style="text;html=1;resizable=0;labelBackgroundColor=#ffffff;align=center;verticalAlign=middle;fontStyle=1;fontColor=#333333;;fontSize=16;" vertex="1" parent="Rg4rLftVrNuiM7w5SH7Z-113">
          <mxGeometry relative="1" as="geometry" />
        </mxCell>
        <UserObject label="No" lucidchartObjectId="fVjB1NoaBryhg" id="Rg4rLftVrNuiM7w5SH7Z-115">
          <mxCell style="html=1;overflow=block;blockSpacing=1;whiteSpace=wrap;;whiteSpace=wrap;fontSize=16;fontFamily=Arimo;fontColor=#333333;fontStyle=1;align=center;spacing=0;strokeOpacity=0;fillOpacity=0;fillColor=#000000;" vertex="1" parent="1">
            <mxGeometry x="1732.5" y="1820" width="54" height="15" as="geometry" />
          </mxCell>
        </UserObject>
        <mxCell id="Rg4rLftVrNuiM7w5SH7Z-116" value="" style="html=1;jettySize=18;whiteSpace=wrap;fontSize=16;strokeColor=#5E5E5E;strokeOpacity=100;strokeWidth=1.5;rounded=0;startArrow=none;;endArrow=none;endFill=1;;exitX=0.501;exitY=0.99;exitPerimeter=0;entryX=0.486;entryY=-0.009;entryPerimeter=0;" edge="1" parent="1" source="Rg4rLftVrNuiM7w5SH7Z-55" target="Rg4rLftVrNuiM7w5SH7Z-115">
          <mxGeometry width="100" height="100" relative="1" as="geometry">
            <Array as="points" />
            <mxPoint x="1759.6930000000002" y="1769.73" as="sourcePoint" />
            <mxPoint x="1756.7980000000002" y="1896.8569999999997" as="targetPoint" />
          </mxGeometry>
        </mxCell>
        <mxCell id="Rg4rLftVrNuiM7w5SH7Z-117" value="" style="text;html=1;resizable=0;labelBackgroundColor=#ffffff;align=center;verticalAlign=middle;fontStyle=1;fontColor=#333333;;fontSize=16;" vertex="1" parent="Rg4rLftVrNuiM7w5SH7Z-116">
          <mxGeometry relative="1" as="geometry" />
        </mxCell>
        <UserObject label="Yes" lucidchartObjectId="PHt8rTTNDktSI" id="Rg4rLftVrNuiM7w5SH7Z-118">
          <mxCell style="html=1;overflow=block;blockSpacing=1;whiteSpace=wrap;;whiteSpace=wrap;fontSize=16;fontFamily=Arimo;fontColor=#333333;fontStyle=1;align=center;spacing=0;strokeOpacity=0;fillOpacity=0;fillColor=#000000;" vertex="1" parent="1">
            <mxGeometry x="1911" y="1700" width="54" height="15" as="geometry" />
          </mxCell>
        </UserObject>
        <mxCell id="Rg4rLftVrNuiM7w5SH7Z-119" value="" style="html=1;jettySize=18;whiteSpace=wrap;fontSize=16;strokeColor=#5E5E5E;strokeOpacity=100;strokeWidth=1.5;rounded=0;startArrow=none;;endArrow=none;endFill=1;;exitX=0.988;exitY=0.5;exitPerimeter=0;entryX=0.075;entryY=0.5;entryPerimeter=0;" edge="1" parent="1" source="Rg4rLftVrNuiM7w5SH7Z-55" target="Rg4rLftVrNuiM7w5SH7Z-118">
          <mxGeometry width="100" height="100" relative="1" as="geometry">
            <Array as="points" />
            <mxPoint x="1853.6839999999997" y="1707.5" as="sourcePoint" />
            <mxPoint x="2016.6749999999997" y="1707.5" as="targetPoint" />
          </mxGeometry>
        </mxCell>
        <mxCell id="Rg4rLftVrNuiM7w5SH7Z-120" value="" style="text;html=1;resizable=0;labelBackgroundColor=#ffffff;align=center;verticalAlign=middle;fontStyle=1;fontColor=#333333;;fontSize=16;" vertex="1" parent="Rg4rLftVrNuiM7w5SH7Z-119">
          <mxGeometry relative="1" as="geometry" />
        </mxCell>
        <UserObject label="Yes" lucidchartObjectId="kbYwKaEkc2Tm2" id="Rg4rLftVrNuiM7w5SH7Z-121">
          <mxCell style="html=1;overflow=block;blockSpacing=1;whiteSpace=wrap;;whiteSpace=wrap;fontSize=16;fontFamily=Arimo;fontColor=#333333;fontStyle=1;align=center;spacing=0;strokeOpacity=0;fillOpacity=0;fillColor=#000000;" vertex="1" parent="1">
            <mxGeometry x="1886" y="2166" width="54" height="15" as="geometry" />
          </mxCell>
        </UserObject>
        <mxCell id="Rg4rLftVrNuiM7w5SH7Z-122" value="" style="html=1;jettySize=18;whiteSpace=wrap;fontSize=16;strokeColor=#5E5E5E;strokeOpacity=100;strokeWidth=1.5;rounded=0;startArrow=none;;endArrow=none;endFill=1;;exitX=0.988;exitY=0.5;exitPerimeter=0;entryX=0.081;entryY=0.5;entryPerimeter=0;" edge="1" parent="1" source="Rg4rLftVrNuiM7w5SH7Z-69" target="Rg4rLftVrNuiM7w5SH7Z-121">
          <mxGeometry width="100" height="100" relative="1" as="geometry">
            <Array as="points" />
            <mxPoint x="1829.6839999999997" y="2173.5" as="sourcePoint" />
            <mxPoint x="1992.6330000000003" y="2173.5" as="targetPoint" />
          </mxGeometry>
        </mxCell>
        <mxCell id="Rg4rLftVrNuiM7w5SH7Z-123" value="" style="text;html=1;resizable=0;labelBackgroundColor=#ffffff;align=center;verticalAlign=middle;fontStyle=1;fontColor=#333333;;fontSize=16;" vertex="1" parent="Rg4rLftVrNuiM7w5SH7Z-122">
          <mxGeometry relative="1" as="geometry" />
        </mxCell>
        <UserObject label="No" lucidchartObjectId="4oLdVwEMnf4od" id="Rg4rLftVrNuiM7w5SH7Z-124">
          <mxCell style="html=1;overflow=block;blockSpacing=1;whiteSpace=wrap;;whiteSpace=wrap;fontSize=16;fontFamily=Arimo;fontColor=#333333;fontStyle=1;align=center;spacing=0;strokeOpacity=0;fillOpacity=0;fillColor=#000000;" vertex="1" parent="1">
            <mxGeometry x="737.5" y="2370" width="54" height="15" as="geometry" />
          </mxCell>
        </UserObject>
        <mxCell id="Rg4rLftVrNuiM7w5SH7Z-125" value="" style="html=1;jettySize=18;whiteSpace=wrap;fontSize=16;strokeColor=#5E5E5E;strokeOpacity=100;strokeWidth=1.5;rounded=0;startArrow=none;;endArrow=none;endFill=1;;exitX=0.501;exitY=0.99;exitPerimeter=0;entryX=0.501;entryY=0.01;entryPerimeter=0;" edge="1" parent="1" source="Rg4rLftVrNuiM7w5SH7Z-15" target="Rg4rLftVrNuiM7w5SH7Z-124">
          <mxGeometry width="100" height="100" relative="1" as="geometry">
            <Array as="points" />
            <mxPoint x="764.693" y="2237.7300000000005" as="sourcePoint" />
            <mxPoint x="764.693" y="2495.2700000000004" as="targetPoint" />
          </mxGeometry>
        </mxCell>
        <mxCell id="Rg4rLftVrNuiM7w5SH7Z-126" value="" style="text;html=1;resizable=0;labelBackgroundColor=#ffffff;align=center;verticalAlign=middle;fontStyle=1;fontColor=#333333;;fontSize=16;" vertex="1" parent="Rg4rLftVrNuiM7w5SH7Z-125">
          <mxGeometry relative="1" as="geometry" />
        </mxCell>
        <UserObject label="Yes" lucidchartObjectId="9C5OjGV03og2J" id="Rg4rLftVrNuiM7w5SH7Z-127">
          <mxCell style="html=1;overflow=block;blockSpacing=1;whiteSpace=wrap;;whiteSpace=wrap;fontSize=16;fontFamily=Arimo;fontColor=#333333;fontStyle=1;align=center;spacing=0;strokeOpacity=0;fillOpacity=0;fillColor=#000000;" vertex="1" parent="1">
            <mxGeometry x="905" y="2550" width="54" height="15" as="geometry" />
          </mxCell>
        </UserObject>
        <mxCell id="Rg4rLftVrNuiM7w5SH7Z-128" value="" style="html=1;jettySize=18;whiteSpace=wrap;fontSize=16;strokeColor=#5E5E5E;strokeOpacity=100;strokeWidth=1.5;rounded=0;startArrow=none;;endArrow=none;endFill=1;;exitX=0.988;exitY=0.5;exitPerimeter=0;" edge="1" parent="1" source="Rg4rLftVrNuiM7w5SH7Z-19" target="Rg4rLftVrNuiM7w5SH7Z-127">
          <mxGeometry width="100" height="100" relative="1" as="geometry">
            <Array as="points" />
            <mxPoint x="1011" y="2557" as="targetPoint" />
            <mxPoint x="858.684" y="2557.5" as="sourcePoint" />
          </mxGeometry>
        </mxCell>
        <mxCell id="Rg4rLftVrNuiM7w5SH7Z-129" value="" style="text;html=1;resizable=0;labelBackgroundColor=#ffffff;align=center;verticalAlign=middle;fontStyle=1;fontColor=#333333;;fontSize=16;" vertex="1" parent="Rg4rLftVrNuiM7w5SH7Z-128">
          <mxGeometry relative="1" as="geometry">
            <mxPoint x="12" as="offset" />
          </mxGeometry>
        </mxCell>
        <mxCell id="Rg4rLftVrNuiM7w5SH7Z-130" value="&lt;font style=&quot;font-size: 32px&quot;&gt;BIGATA, JOHN RIMUEL M.&lt;br&gt;IT-4C&lt;br&gt;&lt;/font&gt;" style="rounded=0;whiteSpace=wrap;html=1;labelBackgroundColor=none;fontSize=16;fillColor=#b0e3e6;strokeColor=#0e8088;" vertex="1" parent="1">
          <mxGeometry x="160" y="160" width="450" height="90" as="geometry" />
        </mxCell>
        <UserObject label="Yes" lucidchartObjectId="lktpNjpbs5kjI" id="Rg4rLftVrNuiM7w5SH7Z-131">
          <mxCell style="html=1;overflow=block;blockSpacing=1;whiteSpace=wrap;;whiteSpace=wrap;fontSize=16;fontFamily=Arimo;fontColor=#333333;fontStyle=1;align=center;spacing=0;strokeOpacity=0;fillOpacity=0;fillColor=#000000;" vertex="1" parent="1">
            <mxGeometry x="905" y="2168" width="54" height="15" as="geometry" />
          </mxCell>
        </UserObject>
        <mxCell id="Rg4rLftVrNuiM7w5SH7Z-132" value="" style="html=1;jettySize=18;whiteSpace=wrap;fontSize=16;strokeColor=#5E5E5E;strokeOpacity=100;strokeWidth=1.5;rounded=0;startArrow=none;;endArrow=none;endFill=1;;exitX=0.988;exitY=0.5;exitPerimeter=0;entryX=0.081;entryY=0.5;entryPerimeter=0;" edge="1" parent="1" source="Rg4rLftVrNuiM7w5SH7Z-15" target="Rg4rLftVrNuiM7w5SH7Z-131">
          <mxGeometry width="100" height="100" relative="1" as="geometry">
            <Array as="points" />
            <mxPoint x="858.684" y="2175.5" as="sourcePoint" />
            <mxPoint x="1001.6329999999998" y="2175.5" as="targetPoint" />
          </mxGeometry>
        </mxCell>
        <mxCell id="Rg4rLftVrNuiM7w5SH7Z-133" value="" style="text;html=1;resizable=0;labelBackgroundColor=#ffffff;align=center;verticalAlign=middle;fontStyle=1;fontColor=#333333;;fontSize=16;" vertex="1" parent="Rg4rLftVrNuiM7w5SH7Z-132">
          <mxGeometry relative="1" as="geometry" />
        </mxCell>
        <mxCell id="Rg4rLftVrNuiM7w5SH7Z-134" value="&lt;span style=&quot;font-family: &amp;#34;arimo&amp;#34; ; font-size: 16px&quot;&gt;Data storage&lt;/span&gt;" style="strokeWidth=2;html=1;shape=mxgraph.flowchart.stored_data;whiteSpace=wrap;fillColor=#d5e8d4;strokeColor=#82b366;" vertex="1" parent="1">
          <mxGeometry x="340" y="480" width="190" height="120" as="geometry" />
        </mxCell>
      </root>
    </mxGraphModel>
  </diagram>
</mxfile>
